<svg width="260" height="79" viewBox="0 0 260 79" fill="none" xmlns="http://www.w3.org/2000/svg">
<g clip-path="url(#clip0_1349_60)">
<path d="M102.571 31.608H105.643C106.773 31.608 107.584 31.3093 108.075 30.712C108.587 30.0933 108.843 29.2613 108.843 28.216C108.843 27.2133 108.587 26.424 108.075 25.848C107.584 25.2507 106.763 24.952 105.611 24.952H102.571V31.608ZM102.571 21.56H105.771C106.944 21.56 107.947 21.7307 108.779 22.072C109.632 22.392 110.336 22.84 110.891 23.416C111.445 23.992 111.851 24.6853 112.107 25.496C112.384 26.2853 112.523 27.16 112.523 28.12C112.523 30.4027 111.915 32.12 110.699 33.272C109.504 34.424 107.872 35 105.803 35H98.8907V12.728H110.731V16.12H102.571V21.56ZM122.565 35V33.784L122.437 33.72C122.053 34.232 121.541 34.6053 120.901 34.84C120.261 35.0533 119.611 35.16 118.949 35.16C117.392 35.16 116.24 34.7227 115.493 33.848C114.747 32.9733 114.373 31.8213 114.373 30.392C114.373 29.7093 114.48 29.08 114.693 28.504C114.907 27.9067 115.237 27.3947 115.685 26.968C116.133 26.52 116.699 26.168 117.381 25.912C118.064 25.656 118.875 25.528 119.813 25.528H122.565V24.088C122.565 23.5547 122.384 23.1067 122.021 22.744C121.659 22.36 121.061 22.168 120.229 22.168C119.653 22.168 119.12 22.2747 118.629 22.488C118.139 22.68 117.755 23.0427 117.477 23.576C117.392 23.5333 117.221 23.4373 116.965 23.288C116.709 23.1173 116.432 22.9467 116.133 22.776C115.856 22.6053 115.589 22.4453 115.333 22.296C115.099 22.1253 114.939 22.008 114.853 21.944C115.344 20.92 116.069 20.1733 117.029 19.704C117.989 19.2347 119.077 19 120.293 19C121.125 19 121.893 19.0853 122.597 19.256C123.301 19.4053 123.909 19.672 124.421 20.056C124.955 20.44 125.371 20.952 125.669 21.592C125.968 22.2107 126.117 22.9893 126.117 23.928V35H122.565ZM122.565 28.216H120.037C119.333 28.216 118.779 28.3867 118.373 28.728C117.989 29.048 117.797 29.528 117.797 30.168C117.797 30.6587 117.968 31.0853 118.309 31.448C118.672 31.8107 119.259 31.992 120.069 31.992C120.752 31.992 121.339 31.8213 121.829 31.48C122.32 31.1173 122.565 30.5413 122.565 29.752V28.216ZM137.296 26.808C138.128 27.1707 138.693 27.6507 138.992 28.248C139.291 28.824 139.44 29.5067 139.44 30.296C139.44 31.8533 138.917 33.0587 137.872 33.912C136.827 34.744 135.419 35.16 133.648 35.16C130.768 35.16 128.891 34.104 128.016 31.992L130.768 30.552C130.96 31.0427 131.323 31.4267 131.856 31.704C132.389 31.96 132.976 32.088 133.616 32.088C134.299 32.088 134.843 31.9173 135.248 31.576C135.675 31.2133 135.888 30.7333 135.888 30.136C135.888 29.4533 135.685 28.952 135.28 28.632C134.896 28.312 134.395 28.152 133.776 28.152H132.016V25.528H133.904C134.501 25.528 134.96 25.368 135.28 25.048C135.6 24.728 135.76 24.2907 135.76 23.736C135.76 23.2453 135.579 22.8507 135.216 22.552C134.853 22.2533 134.352 22.104 133.712 22.104C133.157 22.104 132.624 22.2427 132.112 22.52C131.6 22.776 131.216 23.128 130.96 23.576L128.464 22.04C128.891 21.0587 129.584 20.312 130.544 19.8C131.504 19.2667 132.603 19 133.84 19C135.653 19 137.008 19.3947 137.904 20.184C138.821 20.952 139.28 22.0507 139.28 23.48C139.28 24.056 139.131 24.664 138.832 25.304C138.555 25.944 138.043 26.4453 137.296 26.808ZM149.909 35V33.784L149.781 33.72C149.397 34.232 148.885 34.6053 148.245 34.84C147.605 35.0533 146.954 35.16 146.293 35.16C144.736 35.16 143.584 34.7227 142.837 33.848C142.09 32.9733 141.717 31.8213 141.717 30.392C141.717 29.7093 141.824 29.08 142.037 28.504C142.25 27.9067 142.581 27.3947 143.029 26.968C143.477 26.52 144.042 26.168 144.725 25.912C145.408 25.656 146.218 25.528 147.157 25.528H149.909V24.088C149.909 23.5547 149.728 23.1067 149.365 22.744C149.002 22.36 148.405 22.168 147.573 22.168C146.997 22.168 146.464 22.2747 145.973 22.488C145.482 22.68 145.098 23.0427 144.821 23.576C144.736 23.5333 144.565 23.4373 144.309 23.288C144.053 23.1173 143.776 22.9467 143.477 22.776C143.2 22.6053 142.933 22.4453 142.677 22.296C142.442 22.1253 142.282 22.008 142.197 21.944C142.688 20.92 143.413 20.1733 144.373 19.704C145.333 19.2347 146.421 19 147.637 19C148.469 19 149.237 19.0853 149.941 19.256C150.645 19.4053 151.253 19.672 151.765 20.056C152.298 20.44 152.714 20.952 153.013 21.592C153.312 22.2107 153.461 22.9893 153.461 23.928V35H149.909ZM149.909 28.216H147.381C146.677 28.216 146.122 28.3867 145.717 28.728C145.333 29.048 145.141 29.528 145.141 30.168C145.141 30.6587 145.312 31.0853 145.653 31.448C146.016 31.8107 146.602 31.992 147.413 31.992C148.096 31.992 148.682 31.8213 149.173 31.48C149.664 31.1173 149.909 30.5413 149.909 29.752V28.216ZM171.952 26.808C172.784 27.1707 173.35 27.6507 173.648 28.248C173.947 28.824 174.096 29.5067 174.096 30.296C174.096 31.8533 173.574 33.0587 172.528 33.912C171.483 34.744 170.075 35.16 168.304 35.16C165.424 35.16 163.547 34.104 162.672 31.992L165.424 30.552C165.616 31.0427 165.979 31.4267 166.512 31.704C167.046 31.96 167.632 32.088 168.272 32.088C168.955 32.088 169.499 31.9173 169.904 31.576C170.331 31.2133 170.544 30.7333 170.544 30.136C170.544 29.4533 170.342 28.952 169.936 28.632C169.552 28.312 169.051 28.152 168.432 28.152H166.672V25.528H168.56C169.158 25.528 169.616 25.368 169.936 25.048C170.256 24.728 170.416 24.2907 170.416 23.736C170.416 23.2453 170.235 22.8507 169.872 22.552C169.51 22.2533 169.008 22.104 168.368 22.104C167.814 22.104 167.28 22.2427 166.768 22.52C166.256 22.776 165.872 23.128 165.616 23.576L163.12 22.04C163.547 21.0587 164.24 20.312 165.2 19.8C166.16 19.2667 167.259 19 168.496 19C170.31 19 171.664 19.3947 172.56 20.184C173.478 20.952 173.936 22.0507 173.936 23.48C173.936 24.056 173.787 24.664 173.488 25.304C173.211 25.944 172.699 26.4453 171.952 26.808ZM185.013 35V28.376H180.341V35H176.853V19.16H180.341V25.592H185.013V19.16H188.501V35H185.013ZM199.347 35V33.784L199.219 33.72C198.835 34.232 198.323 34.6053 197.683 34.84C197.043 35.0533 196.392 35.16 195.731 35.16C194.173 35.16 193.021 34.7227 192.275 33.848C191.528 32.9733 191.155 31.8213 191.155 30.392C191.155 29.7093 191.261 29.08 191.475 28.504C191.688 27.9067 192.019 27.3947 192.467 26.968C192.915 26.52 193.48 26.168 194.163 25.912C194.845 25.656 195.656 25.528 196.595 25.528H199.347V24.088C199.347 23.5547 199.165 23.1067 198.803 22.744C198.44 22.36 197.843 22.168 197.011 22.168C196.435 22.168 195.901 22.2747 195.411 22.488C194.92 22.68 194.536 23.0427 194.259 23.576C194.173 23.5333 194.003 23.4373 193.747 23.288C193.491 23.1173 193.213 22.9467 192.915 22.776C192.637 22.6053 192.371 22.4453 192.115 22.296C191.88 22.1253 191.72 22.008 191.635 21.944C192.125 20.92 192.851 20.1733 193.811 19.704C194.771 19.2347 195.859 19 197.075 19C197.907 19 198.675 19.0853 199.379 19.256C200.083 19.4053 200.691 19.672 201.203 20.056C201.736 20.44 202.152 20.952 202.451 21.592C202.749 22.2107 202.899 22.9893 202.899 23.928V35H199.347ZM199.347 28.216H196.819C196.115 28.216 195.56 28.3867 195.155 28.728C194.771 29.048 194.579 29.528 194.579 30.168C194.579 30.6587 194.749 31.0853 195.091 31.448C195.453 31.8107 196.04 31.992 196.851 31.992C197.533 31.992 198.12 31.8213 198.611 31.48C199.101 31.1173 199.347 30.5413 199.347 29.752V28.216ZM214.013 35V28.376H209.341V35H205.853V19.16H209.341V25.592H214.013V19.16H217.501V35H214.013ZM229.755 25.688L228.059 28.472L223.995 35H220.763V19.192H224.251V29.016H224.315C224.592 28.5467 224.859 28.088 225.115 27.64C225.392 27.1707 225.68 26.7013 225.979 26.232C226.661 25.0373 227.355 23.864 228.059 22.712C228.763 21.5387 229.456 20.3653 230.139 19.192H233.371V35H229.851V25.688H229.755ZM245.755 25.688L244.059 28.472L239.995 35H236.763V19.192H240.251V29.016H240.315C240.592 28.5467 240.859 28.088 241.115 27.64C241.392 27.1707 241.68 26.7013 241.979 26.232C242.661 25.0373 243.355 23.864 244.059 22.712C244.763 21.5387 245.456 20.3653 246.139 19.192H249.371V35H245.851V25.688H245.755ZM243.419 17.176C242.523 17.176 241.765 17.016 241.147 16.696C240.549 16.376 240.059 15.9813 239.675 15.512C239.312 15.0427 239.045 14.5307 238.875 13.976C238.704 13.4213 238.608 12.9093 238.587 12.44H241.339C241.36 12.6747 241.413 12.92 241.499 13.176C241.605 13.4107 241.744 13.6347 241.915 13.848C242.107 14.0613 242.32 14.2427 242.555 14.392C242.811 14.52 243.099 14.584 243.419 14.584C243.76 14.584 244.059 14.52 244.315 14.392C244.571 14.2427 244.784 14.0613 244.955 13.848C245.125 13.6347 245.253 13.4107 245.339 13.176C245.424 12.92 245.467 12.6747 245.467 12.44H248.187C248.144 12.9093 248.027 13.4213 247.835 13.976C247.664 14.5307 247.397 15.0427 247.035 15.512C246.672 15.9813 246.192 16.376 245.595 16.696C244.997 17.016 244.272 17.176 243.419 17.176ZM111.979 62.264C111.616 63.8213 110.848 65.0373 109.675 65.912C108.501 66.7653 107.083 67.192 105.419 67.192C104.267 67.192 103.264 67.0107 102.411 66.648C101.557 66.2853 100.843 65.784 100.267 65.144C99.6907 64.504 99.264 63.7573 98.9867 62.904C98.7093 62.0293 98.5707 61.0907 98.5707 60.088V51.448C98.5707 50.5733 98.7093 49.72 98.9867 48.888C99.264 48.056 99.68 47.32 100.235 46.68C100.811 46.04 101.525 45.528 102.379 45.144C103.232 44.76 104.245 44.568 105.419 44.568C107.211 44.568 108.661 45.0373 109.771 45.976C110.901 46.9147 111.648 48.088 112.011 49.496L108.523 50.648C108.459 50.328 108.352 50.0187 108.203 49.72C108.053 49.4213 107.851 49.1547 107.595 48.92C107.339 48.664 107.029 48.4613 106.667 48.312C106.304 48.1627 105.888 48.088 105.419 48.088C104.864 48.088 104.384 48.184 103.979 48.376C103.595 48.568 103.275 48.824 103.019 49.144C102.763 49.4427 102.571 49.784 102.443 50.168C102.315 50.552 102.251 50.936 102.251 51.32V60.184C102.251 60.6533 102.315 61.1013 102.443 61.528C102.571 61.9547 102.763 62.328 103.019 62.648C103.296 62.968 103.627 63.224 104.011 63.416C104.416 63.5867 104.885 63.672 105.419 63.672C106.208 63.672 106.88 63.448 107.435 63C107.989 62.552 108.341 61.9333 108.491 61.144L111.979 62.264ZM127.825 44.76C126.886 47.704 125.969 50.6373 125.073 53.56C124.177 56.4613 123.249 59.384 122.289 62.328C121.947 63.3733 121.585 64.216 121.201 64.856C120.817 65.4747 120.411 65.9547 119.985 66.296C119.558 66.616 119.099 66.8293 118.609 66.936C118.118 67.0427 117.585 67.1067 117.009 67.128H115.217V64.12H116.529C116.977 64.12 117.361 64.0027 117.681 63.768C118.022 63.5333 118.342 63.0747 118.641 62.392C118.683 62.264 118.737 62.136 118.801 62.008C118.865 61.8587 118.918 61.6987 118.961 61.528L113.169 44.76H116.945L119.057 51.64L120.657 56.888H120.817C120.987 56.2907 121.222 55.448 121.521 54.36C121.841 53.272 122.171 52.1307 122.513 50.936C122.854 49.72 123.185 48.5573 123.505 47.448C123.825 46.3173 124.07 45.4213 124.241 44.76H127.825ZM128.896 62.04C129.088 61.976 129.333 61.9013 129.632 61.816C129.952 61.7093 130.282 61.6027 130.624 61.496C130.965 61.368 131.285 61.2507 131.584 61.144C131.904 61.0373 132.16 60.952 132.352 60.888C132.522 61.8053 132.917 62.52 133.536 63.032C134.154 63.5227 134.89 63.768 135.744 63.768C136.704 63.768 137.45 63.4587 137.984 62.84C138.538 62.2213 138.816 61.3893 138.816 60.344C138.816 59.8747 138.762 59.4373 138.656 59.032C138.57 58.6267 138.41 58.2747 138.176 57.976C137.941 57.656 137.632 57.4107 137.248 57.24C136.864 57.048 136.384 56.952 135.808 56.952H134.08V53.848H135.84C136.736 53.848 137.44 53.5813 137.952 53.048C138.464 52.5147 138.72 51.7467 138.72 50.744C138.72 49.9333 138.474 49.2827 137.984 48.792C137.493 48.28 136.8 48.024 135.904 48.024C135.029 48.024 134.304 48.28 133.728 48.792C133.173 49.304 132.789 49.9653 132.576 50.776L129.216 49.56C129.578 48.024 130.336 46.808 131.488 45.912C132.661 44.9947 134.154 44.536 135.968 44.536C138.037 44.536 139.626 45.0373 140.736 46.04C141.845 47.0427 142.4 48.5147 142.4 50.456C142.4 50.8187 142.357 51.2347 142.272 51.704C142.208 52.1733 142.08 52.6427 141.888 53.112C141.717 53.56 141.461 53.9867 141.12 54.392C140.8 54.776 140.384 55.0747 139.872 55.288V55.416C140.405 55.6293 140.842 55.928 141.184 56.312C141.546 56.6747 141.834 57.0907 142.048 57.56C142.261 58.0293 142.4 58.52 142.464 59.032C142.549 59.5227 142.592 60.0027 142.592 60.472C142.592 61.5813 142.421 62.552 142.08 63.384C141.76 64.216 141.29 64.92 140.672 65.496C140.074 66.0507 139.349 66.4773 138.496 66.776C137.664 67.0533 136.736 67.192 135.712 67.192C133.877 67.192 132.352 66.744 131.136 65.848C129.941 64.952 129.194 63.6827 128.896 62.04ZM155.56 67V48.088H149.512V67H145.864V44.728H159.208V67H155.56Z" fill="#3E4040"/>
<path d="M38.85 66.33C33.2529 66.4919 27.7334 64.9903 22.9898 62.0151C18.2461 59.04 14.4912 54.7249 12.2 49.6156C9.90887 44.5064 9.1843 38.8324 10.118 33.3113C11.0516 27.7903 13.6016 22.6701 17.4454 18.5983C21.2892 14.5265 26.2541 11.686 31.7123 10.4361C37.1705 9.18622 42.8767 9.583 48.1094 11.5763C53.3421 13.5696 57.8661 17.0698 61.1094 21.6344C64.3526 26.199 66.1694 31.6228 66.33 37.22C66.4379 40.936 65.8126 44.6368 64.4899 48.111C63.1671 51.5853 61.1728 54.7649 58.6209 57.4682C56.069 60.1715 53.0094 62.3455 49.6171 63.866C46.2247 65.3866 42.566 66.2238 38.85 66.33ZM76.05 36.94C75.8277 29.4306 73.3844 22.1557 69.029 16.0343C64.6736 9.91304 58.6015 5.2201 51.5799 2.54851C44.5583 -0.123084 36.9024 -0.653428 29.5795 1.02449C22.2566 2.70241 15.5954 6.51329 10.4376 11.9756C5.27976 17.4379 1.85677 24.3065 0.601149 31.7135C-0.654476 39.1205 0.313613 46.7334 3.38309 53.5904C6.45257 60.4474 11.4857 66.2407 17.8465 70.2382C24.2072 74.2358 31.6102 76.2582 39.12 76.05C44.1143 75.9115 49.0323 74.7895 53.5925 72.7481C58.1526 70.7068 62.2655 67.7862 65.6957 64.1536C69.1259 60.5209 71.806 56.2475 73.5827 51.5778C75.3594 46.9082 76.1979 41.934 76.05 36.94Z" fill="#0066B3"/>
<path d="M38 65.66C30.7819 65.5966 23.8753 62.711 18.7575 57.6205C13.6398 52.53 10.7174 45.6388 10.6155 38.4212C10.5135 31.2036 13.2402 24.2326 18.2122 18.9996C23.1842 13.7667 30.0066 10.6872 37.22 10.42H38.03C45.2943 10.4101 52.27 13.2623 57.4462 18.359C62.6225 23.4557 65.5825 30.3864 65.685 37.65C65.7876 44.9135 63.0245 51.925 57.9943 57.1659C52.964 62.4067 46.0716 65.4548 38.81 65.65H38M38 66.33H38.83C46.2749 66.1325 53.3421 63.0093 58.5002 57.6371C63.6582 52.265 66.4916 45.0767 66.3864 37.6299C66.2812 30.1832 63.2457 23.0778 57.9379 17.8536C52.6301 12.6293 45.4775 9.70707 38.03 9.72001H37.2C29.6917 9.8261 22.5331 12.9105 17.299 18.2947C12.0648 23.6788 9.18391 30.9217 9.29 38.43C9.39609 45.9383 12.4805 53.0969 17.8646 58.331C23.2488 63.5652 30.4917 66.4461 38 66.34" fill="white"/>
<path d="M38.05 11.1H37.26C30.1124 11.1981 23.2966 14.1316 18.3118 19.2551C13.3271 24.3786 10.5819 31.2724 10.68 38.42C10.7781 45.5676 13.7116 52.3835 18.8351 57.3682C23.9586 62.3529 30.8524 65.0981 38 65H38.79C45.8213 64.7368 52.4705 61.7331 57.316 56.6312C62.1615 51.5294 64.8187 44.7343 64.7194 37.6988C64.6202 30.6633 61.7723 23.9458 56.7848 18.9827C51.7972 14.0196 45.0659 11.2048 38.03 11.14L38.05 11.1ZM38 67C32.3503 66.9761 26.8306 65.3024 22.119 62.1845C17.4074 59.0666 13.7092 54.6404 11.4786 49.4496C9.24805 44.2588 8.58232 38.5294 9.56321 32.9654C10.5441 27.4015 13.1289 22.2452 17 18.13C19.6002 15.3571 22.7241 13.1269 26.1913 11.5684C29.6584 10.0099 33.4001 9.15395 37.2 9.05001H38.05C45.7413 8.9426 53.1602 11.8949 58.6747 17.2575C64.1892 22.6201 67.3476 29.9537 67.455 37.645C67.5624 45.3363 64.6101 52.7552 59.2475 58.2697C53.8849 63.7842 46.5513 66.9426 38.86 67.05H38" fill="#0066B3"/>
<path d="M64.89 59.62L63.68 57.77L62.81 58.87L64.89 59.62ZM60.64 59.14L60.43 59.05C60.43 59.05 60.36 58.99 60.36 58.95C60.3415 58.9017 60.3415 58.8483 60.36 58.8C60.4147 58.7193 60.4749 58.6425 60.54 58.57C60.5977 58.4857 60.6612 58.4055 60.73 58.33C60.7677 58.2871 60.8115 58.25 60.86 58.22C60.8726 58.2145 60.8862 58.2116 60.9 58.2116C60.9138 58.2116 60.9274 58.2145 60.94 58.22H61.02L62.02 58.58L63.18 57.12L62.62 56.28C62.6167 56.2501 62.6167 56.2199 62.62 56.19C62.61 56.1574 62.61 56.1226 62.62 56.09L62.7 55.95L62.86 55.74L63.04 55.53C63.0559 55.5102 63.0756 55.4939 63.0979 55.4818C63.1202 55.4698 63.1448 55.4624 63.17 55.46C63.17 55.46 63.24 55.46 63.28 55.51C63.3295 55.5653 63.3731 55.6256 63.41 55.69L65.9 59.62C65.9036 59.6532 65.9036 59.6867 65.9 59.72C65.9045 59.7598 65.9045 59.8001 65.9 59.84L65.8 60C65.7418 60.0839 65.6783 60.1641 65.61 60.24L65.39 60.52L65.23 60.67C65.1941 60.6808 65.1559 60.6808 65.12 60.67C65.0771 60.6789 65.0329 60.6789 64.99 60.67L60.64 59.14ZM65.24 54.69C65.3276 54.7453 65.4269 54.7795 65.53 54.79C65.6189 54.8098 65.7111 54.8098 65.8 54.79C65.8954 54.7534 65.9809 54.6952 66.05 54.62C66.1578 54.5206 66.246 54.4019 66.31 54.27L66.63 53.71L65.38 53L65.06 53.57C64.9909 53.6894 64.9371 53.8171 64.9 53.95C64.8859 54.0461 64.8859 54.1438 64.9 54.24C64.9201 54.3328 64.9574 54.4209 65.01 54.5C65.0734 54.5844 65.1556 54.6528 65.25 54.7M64.81 55.63C64.6248 55.5259 64.4618 55.3866 64.33 55.22C64.2026 55.0664 64.1135 54.8847 64.07 54.69C64.0205 54.4694 64.0205 54.2406 64.07 54.02C64.1347 53.7148 64.2533 53.4236 64.42 53.16L65.07 52C65.0856 51.9617 65.1087 51.927 65.1378 51.8978C65.167 51.8686 65.2018 51.8456 65.24 51.83C65.2851 51.8213 65.3316 51.8222 65.3763 51.8325C65.4211 51.8429 65.4632 51.8624 65.5 51.89L69.25 54C69.2913 54.0159 69.3283 54.0415 69.3579 54.0745C69.3874 54.1075 69.4087 54.1471 69.42 54.19C69.4485 54.264 69.4485 54.346 69.42 54.42L68 56.87L67.95 56.92H67.87H67.74L67.58 56.84L67.42 56.74C67.3851 56.7152 67.3547 56.6848 67.33 56.65C67.3224 56.6273 67.3224 56.6027 67.33 56.58C67.3247 56.5691 67.3219 56.5571 67.3219 56.545C67.3219 56.5328 67.3247 56.5209 67.33 56.51L68.33 54.69L67.25 54.08L66.85 54.8C66.7261 55.033 66.5714 55.2483 66.39 55.44C66.2445 55.5765 66.075 55.685 65.89 55.76C65.7186 55.8278 65.533 55.8518 65.35 55.83C65.1493 55.8117 64.9548 55.7503 64.78 55.65M65.9 50.85C65.8806 50.8568 65.8594 50.8568 65.84 50.85C65.84 50.85 65.84 50.8 65.84 50.76C65.8357 50.7067 65.8357 50.6532 65.84 50.6C65.8604 50.5148 65.8872 50.4312 65.92 50.35C65.9344 50.2308 65.9612 50.1135 66 50C66.0184 49.946 66.0454 49.8953 66.08 49.85C66.0996 49.8219 66.1276 49.8009 66.16 49.79H66.26H67.43C67.5728 49.8072 67.7172 49.8072 67.86 49.79C67.9684 49.7749 68.0733 49.7411 68.17 49.69C68.2533 49.6431 68.3251 49.5782 68.38 49.5C68.4376 49.4139 68.4814 49.3195 68.51 49.22L68.58 49.03L66.7 48.41C66.7 48.41 66.7 48.41 66.64 48.41C66.6283 48.3811 66.6283 48.3488 66.64 48.32C66.637 48.27 66.637 48.2199 66.64 48.17L66.71 47.94L66.79 47.72L66.87 47.58L66.94 47.52H67L68.87 48.14L68.94 47.96C68.9583 47.8507 68.9583 47.7392 68.94 47.63C68.9451 47.533 68.9244 47.4364 68.88 47.35C68.8364 47.253 68.7754 47.1649 68.7 47.09C68.6026 46.9964 68.4991 46.9096 68.39 46.83L67.39 46.14L67.45 46C67.4434 45.9636 67.4434 45.9263 67.45 45.89C67.4469 45.8367 67.4469 45.7833 67.45 45.73C67.4679 45.6452 67.4913 45.5617 67.52 45.48C67.5486 45.3981 67.582 45.3179 67.62 45.24C67.6394 45.1882 67.6628 45.1381 67.69 45.09L67.76 45.03C67.7857 45.0199 67.8143 45.0199 67.84 45.03C67.84 45.03 67.84 45.03 67.9 45.03H67.97L68.07 45.11L68.9 45.75C69.0372 45.8473 69.1644 45.9578 69.28 46.08C69.371 46.1644 69.4485 46.2622 69.51 46.37C69.5713 46.4538 69.6155 46.549 69.64 46.65C69.6456 46.7532 69.6456 46.8567 69.64 46.96C69.6927 46.8839 69.7568 46.8165 69.83 46.76C69.9034 46.6975 69.9883 46.6499 70.08 46.62C70.191 46.5841 70.3047 46.5573 70.42 46.54C70.5764 46.5284 70.7335 46.5284 70.89 46.54H72.03H72.14C72.1594 46.5331 72.1806 46.5331 72.2 46.54C72.2 46.54 72.2 46.59 72.2 46.63C72.2037 46.6799 72.2037 46.73 72.2 46.78C72.1832 46.8617 72.1598 46.942 72.13 47.02C72.1067 47.1023 72.0766 47.1826 72.04 47.26C72.04 47.32 72.04 47.38 71.96 47.4C71.9415 47.4313 71.9135 47.4558 71.88 47.47H71.78H70.69C70.5602 47.4589 70.4298 47.4589 70.3 47.47C70.2021 47.477 70.1068 47.5042 70.02 47.55C69.9423 47.5965 69.8744 47.6576 69.82 47.73C69.7589 47.8154 69.7117 47.9099 69.68 48.01L69.62 48.2L71.38 48.78C71.3995 48.7738 71.4205 48.7738 71.44 48.78C71.44 48.78 71.44 48.78 71.44 48.87C71.448 48.9196 71.448 48.9703 71.44 49.02C71.426 49.0992 71.4025 49.1764 71.37 49.25C71.3482 49.325 71.3215 49.3985 71.29 49.47C71.27 49.5201 71.2431 49.5673 71.21 49.61C71.1948 49.6379 71.1699 49.6592 71.14 49.67H71.07L69.4 49.3L69.34 49.48C69.3017 49.5789 69.2814 49.6839 69.28 49.79C69.2795 49.8801 69.3001 49.9691 69.34 50.05C69.3867 50.1421 69.4474 50.2264 69.52 50.3C69.6061 50.392 69.7035 50.4726 69.81 50.54L70.7 51.17C70.7273 51.1848 70.7512 51.2053 70.77 51.23C70.78 51.2626 70.78 51.2974 70.77 51.33C70.7781 51.383 70.7781 51.4369 70.77 51.49C70.7569 51.5758 70.7334 51.6598 70.7 51.74C70.6769 51.8192 70.6468 51.8962 70.61 51.97C70.5907 52.0186 70.5673 52.0654 70.54 52.11C70.5219 52.1354 70.4979 52.156 70.47 52.17H70.4H70.28L70.13 52L69.4 51.44C69.2777 51.3503 69.1609 51.2534 69.05 51.15C68.9678 51.0676 68.8941 50.9771 68.83 50.88C68.7812 50.7989 68.7442 50.7114 68.72 50.62C68.7048 50.5239 68.7048 50.426 68.72 50.33C68.6477 50.4143 68.5673 50.4913 68.48 50.56C68.3934 50.6217 68.2993 50.6721 68.2 50.71C68.0836 50.7529 67.9629 50.783 67.84 50.8C67.6735 50.8115 67.5065 50.8115 67.34 50.8H65.92M69.3 43.21C69.0665 43.0869 68.8425 42.9465 68.63 42.79C68.4782 42.683 68.3491 42.547 68.25 42.39C68.1537 42.2656 68.0948 42.1165 68.08 41.96C68.0499 41.7913 68.0499 41.6186 68.08 41.45V41.25C68.08 41.19 68.08 41.13 68.15 41.07C68.1672 41.0205 68.1907 40.9734 68.22 40.93L68.29 40.84H68.35H68.44H68.58H68.78C68.8869 40.8431 68.9921 40.8669 69.09 40.91C69.15 40.91 69.18 40.98 69.17 41.02C69.1784 41.046 69.1784 41.074 69.17 41.1C69.1385 41.1253 69.1114 41.1557 69.09 41.19C69.0625 41.2309 69.0391 41.2745 69.02 41.32C69.013 41.3798 69.013 41.4402 69.02 41.5C69.01 41.5495 69.01 41.6005 69.02 41.65C69.0115 41.6963 69.0115 41.7437 69.02 41.79C69.0542 41.8383 69.0945 41.882 69.14 41.92C69.2043 41.9804 69.2747 42.034 69.35 42.08L72.86 40.91C72.9262 40.8984 72.9938 40.8984 73.06 40.91C73.0772 40.9019 73.096 40.8978 73.115 40.8978C73.134 40.8978 73.1528 40.9019 73.17 40.91C73.1845 40.9623 73.1845 41.0176 73.17 41.07C73.1774 41.1665 73.1774 41.2634 73.17 41.36C73.17 41.48 73.17 41.57 73.17 41.64C73.1639 41.7006 73.1433 41.7589 73.11 41.81C73.0945 41.8483 73.0662 41.88 73.03 41.9L72.9 41.95L71.32 42.44L70.82 42.6L70.31 42.73L70.79 42.96L71.27 43.21L72.7 43.97C72.731 43.9878 72.7582 44.0116 72.78 44.04C72.7835 44.0699 72.7835 44.1001 72.78 44.13C72.7848 44.1865 72.7848 44.2434 72.78 44.3C72.78 44.37 72.78 44.47 72.78 44.58C72.7854 44.6699 72.7854 44.7601 72.78 44.85C72.7692 44.9032 72.7489 44.954 72.72 45C72.7063 45.0079 72.6908 45.012 72.675 45.012C72.6592 45.012 72.6437 45.0079 72.63 45C72.5545 45.019 72.4755 45.019 72.4 45L69.3 43.21ZM68.48 39.21H68.41C68.4008 39.1841 68.4008 39.1559 68.41 39.13C68.4023 39.0803 68.4023 39.0297 68.41 38.98C68.4033 38.9001 68.4033 38.8198 68.41 38.74V38.49C68.41 38.43 68.41 38.38 68.41 38.34C68.4062 38.3101 68.4062 38.2799 68.41 38.25H68.48L72.48 38.13V37.07C71.89 37.01 71.38 36.96 70.95 36.89C70.5692 36.8492 70.1916 36.7824 69.82 36.69C69.5557 36.6322 69.2978 36.5485 69.05 36.44C68.8734 36.3563 68.7114 36.2449 68.57 36.11C68.4501 35.9896 68.3609 35.8421 68.31 35.68C68.2651 35.4998 68.2383 35.3155 68.23 35.13C68.2251 35.0968 68.2251 35.0631 68.23 35.03C68.2443 35.0023 68.2648 34.9783 68.29 34.96H68.41H68.6C68.6897 34.9498 68.7803 34.9498 68.87 34.96H69.02C69.0159 34.9744 69.0091 34.988 69 35C69.0059 35.0229 69.0059 35.047 69 35.07C69.0044 35.1467 69.0248 35.2216 69.06 35.29C69.1027 35.3762 69.1685 35.4489 69.25 35.5C69.3797 35.5748 69.5172 35.6351 69.66 35.68C69.8832 35.7497 70.1102 35.8065 70.34 35.85L71.34 35.99C71.74 36.04 72.22 36.08 72.78 36.13C72.8755 36.1323 72.9687 36.1599 73.05 36.21C73.1034 36.2634 73.1354 36.3346 73.14 36.41L73.21 38.84C73.2152 38.878 73.2116 38.9167 73.1995 38.9531C73.1874 38.9896 73.167 39.0227 73.14 39.05C73.108 39.0802 73.0703 39.1038 73.0291 39.1192C72.9879 39.1347 72.944 39.1417 72.9 39.14L68.48 39.21ZM68.84 34.14H68.68H68.57H68.48H68.39C68.3382 34.0987 68.2912 34.0518 68.25 34C68.19 33.93 68.13 33.84 68.06 33.74C67.99 33.64 67.94 33.51 67.88 33.37C67.8282 33.2158 67.7848 33.0589 67.75 32.9C67.6904 32.5928 67.6904 32.2771 67.75 31.97C67.7968 31.6906 67.91 31.4265 68.08 31.2C68.2612 30.959 68.4934 30.7609 68.76 30.62C69.0728 30.4492 69.4101 30.3278 69.76 30.26C70.1352 30.1849 70.5197 30.1681 70.9 30.21C71.2153 30.249 71.5187 30.3547 71.79 30.52C72.0465 30.6733 72.2626 30.8859 72.42 31.14C72.5965 31.4022 72.7157 31.6986 72.77 32.01C72.7843 32.1429 72.7843 32.277 72.77 32.41C72.77 32.54 72.77 32.66 72.77 32.78C72.7573 32.8854 72.7339 32.9893 72.7 33.09C72.6797 33.1606 72.6494 33.2279 72.61 33.29L72.54 33.38C72.5135 33.3837 72.4865 33.3837 72.46 33.38C72.4203 33.3871 72.3797 33.3871 72.34 33.38H72.17H71.97C71.9268 33.385 71.8832 33.385 71.84 33.38C71.8143 33.39 71.7857 33.39 71.76 33.38C71.7547 33.3709 71.752 33.3605 71.752 33.35C71.752 33.3394 71.7547 33.3291 71.76 33.32C71.7405 33.2719 71.7405 33.2181 71.76 33.17L71.86 32.91C71.911 32.843 71.9578 32.7728 72 32.7C72.0241 32.5476 72.0241 32.3924 72 32.24C71.9683 32.0579 71.8928 31.8863 71.78 31.74C71.6686 31.6044 71.5286 31.4951 71.37 31.42C71.1848 31.3446 70.9892 31.2974 70.79 31.28C70.5485 31.2717 70.3068 31.2919 70.07 31.34C69.8199 31.3803 69.5772 31.4578 69.35 31.57C69.1731 31.6567 69.0138 31.7754 68.88 31.92C68.7733 32.0512 68.6981 32.2052 68.66 32.37C68.62 32.5477 68.62 32.7322 68.66 32.91C68.684 33.0674 68.7348 33.2196 68.81 33.36C68.8685 33.4652 68.9353 33.5655 69.01 33.66C69.0623 33.7302 69.1227 33.794 69.19 33.85C69.2288 33.8865 69.2594 33.9308 69.28 33.98C69.28 33.98 69.28 34.03 69.28 34.04C69.28 34.05 69.28 34.04 69.28 34.09H69.15H68.94M68.75 22.36L68.4 22C68.3296 21.8544 68.2387 21.7197 68.13 21.6C68.0574 21.5315 67.9726 21.4772 67.88 21.44C67.7911 21.4205 67.6989 21.4205 67.61 21.44C67.5122 21.4592 67.4178 21.4929 67.33 21.54C67.2455 21.5893 67.1682 21.6498 67.1 21.72C67.0461 21.8046 67.0119 21.9003 67 22C66.9795 22.0989 66.9795 22.201 67 22.3C67.0357 22.4523 67.0966 22.5976 67.18 22.73L67.43 23.2L68.75 22.36ZM65.68 25.17C65.6543 25.18 65.6257 25.18 65.6 25.17C65.6 25.17 65.6 25.17 65.52 25.12L65.43 25C65.3813 24.9334 65.3379 24.8632 65.3 24.79L65.2 24.58C65.1912 24.5304 65.1912 24.4796 65.2 24.43C65.19 24.3974 65.19 24.3626 65.2 24.33C65.1947 24.3137 65.1947 24.2962 65.2 24.28L66.82 23.4L66.65 23.07C66.597 22.965 66.5259 22.8702 66.44 22.79C66.3764 22.7287 66.2966 22.6871 66.21 22.67C66.114 22.6534 66.016 22.6534 65.92 22.67H65.56L64.34 23C64.311 23.0107 64.279 23.0107 64.25 23C64.25 23 64.19 23 64.16 22.95C64.1185 22.911 64.0816 22.8673 64.05 22.82C64.05 22.76 63.97 22.68 63.92 22.59C63.8756 22.5088 63.8355 22.4254 63.8 22.34C63.7898 22.2905 63.7898 22.2394 63.8 22.19C63.7938 22.1603 63.7938 22.1297 63.8 22.1H63.89H64.06L65.06 21.96H65.42C65.5199 21.954 65.6201 21.954 65.72 21.96C65.8104 21.9778 65.8979 22.0081 65.98 22.05C66.0622 22.081 66.137 22.1287 66.2 22.19C66.1853 22.0403 66.1853 21.8896 66.2 21.74C66.2053 21.6065 66.2323 21.4748 66.28 21.35C66.3344 21.2284 66.4087 21.1169 66.5 21.02C66.6039 20.913 66.7258 20.825 66.86 20.76C67.0408 20.6551 67.242 20.5903 67.45 20.57C67.6436 20.5516 67.8389 20.579 68.02 20.65C68.2176 20.7357 68.3974 20.8578 68.55 21.01C68.7684 21.247 68.9535 21.5128 69.1 21.8L69.67 22.87C69.6989 22.9405 69.6989 23.0195 69.67 23.09C69.6567 23.1307 69.6346 23.1679 69.6052 23.199C69.5758 23.2301 69.5399 23.2544 69.5 23.27L65.68 25.17ZM65.15 17.07L63 17.9L63.82 19L65.15 17.07ZM63.68 21.07C63.6432 21.1341 63.5959 21.1915 63.54 21.24C63.5271 21.2573 63.5106 21.2717 63.4916 21.282C63.4726 21.2924 63.4516 21.2985 63.43 21.3C63.3796 21.2817 63.3348 21.2507 63.3 21.21L63 21.1L62.82 20.86C62.7859 20.8143 62.7589 20.7638 62.74 20.71C62.733 20.696 62.7293 20.6806 62.7293 20.665C62.7293 20.6493 62.733 20.6339 62.74 20.62C62.7345 20.6074 62.7317 20.5937 62.7317 20.58C62.7317 20.5662 62.7345 20.5526 62.74 20.54L63.31 19.67L62.22 18.2L61.22 18.55H61.12H61.03C60.9848 18.5234 60.9443 18.4896 60.91 18.45L60.74 18.24L60.62 18C60.604 17.9513 60.604 17.8987 60.62 17.85C60.6339 17.8107 60.6626 17.7784 60.7 17.76L60.91 17.67L65.3 16.18H65.42C65.4562 16.1718 65.4938 16.1718 65.53 16.18C65.5782 16.2181 65.6219 16.2617 65.66 16.31C65.72 16.37 65.78 16.45 65.86 16.55L66.08 16.84C66.1205 16.8957 66.1541 16.9561 66.18 17.02C66.1938 17.0622 66.1938 17.1077 66.18 17.15C66.1658 17.1895 66.1455 17.2266 66.12 17.26L63.68 21.07ZM61.68 13.79C61.7433 13.7207 61.7971 13.6434 61.84 13.56C61.8595 13.4812 61.8595 13.3988 61.84 13.32C61.828 13.2343 61.7972 13.1524 61.75 13.08C61.6834 12.9729 61.6027 12.8754 61.51 12.79L61 12.57L60.13 13.5L60.54 13.89C60.6241 13.9733 60.7223 14.041 60.83 14.09C60.9156 14.1093 61.0044 14.1093 61.09 14.09C61.1704 14.0892 61.2494 14.0685 61.32 14.03C61.3971 13.9911 61.4652 13.9366 61.52 13.87M60.27 15.59C60.337 15.5105 60.3941 15.4232 60.44 15.33C60.4591 15.2376 60.4591 15.1423 60.44 15.05C60.4259 14.9431 60.3884 14.8406 60.33 14.75C60.251 14.6197 60.1494 14.5045 60.03 14.41L59.65 14L58.65 15L59.18 15.49C59.2632 15.5768 59.3615 15.648 59.47 15.7C59.5537 15.7447 59.6455 15.7719 59.74 15.78C59.829 15.7989 59.921 15.7989 60.01 15.78C60.101 15.7407 60.1827 15.6828 60.25 15.61M61.03 16.3C60.9215 16.417 60.797 16.5181 60.66 16.6C60.5333 16.6701 60.3939 16.7143 60.25 16.73C60.1111 16.7549 59.9689 16.7549 59.83 16.73C59.6856 16.7073 59.5446 16.667 59.41 16.61C59.2688 16.5492 59.1318 16.479 59 16.4C58.8543 16.2939 58.7141 16.1804 58.58 16.06L57.63 15.16C57.5991 15.1358 57.5734 15.1056 57.5545 15.0712C57.5356 15.0369 57.5239 14.999 57.52 14.96C57.5183 14.9151 57.5264 14.8704 57.5436 14.829C57.5609 14.7875 57.5869 14.7503 57.62 14.72L60.56 11.57C60.5874 11.5353 60.6224 11.5074 60.6623 11.4883C60.7021 11.4693 60.7458 11.4596 60.79 11.46C60.8691 11.4611 60.9446 11.4934 61 11.55L61.9 12.39C62.096 12.5626 62.2675 12.7611 62.41 12.98C62.5265 13.1377 62.6083 13.3184 62.65 13.51C62.69 13.6776 62.69 13.8523 62.65 14.02C62.5923 14.2028 62.4891 14.368 62.35 14.5C62.2732 14.5842 62.1858 14.6582 62.09 14.72C61.9985 14.7786 61.8967 14.8193 61.79 14.84C61.6872 14.8549 61.5828 14.8549 61.48 14.84C61.3703 14.8276 61.2627 14.8007 61.16 14.76C61.2389 14.8711 61.3028 14.9921 61.35 15.12C61.3894 15.2462 61.4097 15.3777 61.41 15.51C61.3992 15.6469 61.3689 15.7816 61.32 15.91C61.2571 16.0543 61.1691 16.1864 61.06 16.3M57 11.51C57.1293 11.3106 57.2397 11.0997 57.33 10.88C57.4135 10.7014 57.4579 10.5071 57.46 10.31C57.463 10.1314 57.4181 9.95531 57.33 9.79997C57.2168 9.6199 57.0626 9.46914 56.88 9.35997C56.7195 9.24127 56.5307 9.16678 56.3324 9.14397C56.1341 9.12116 55.9332 9.15081 55.75 9.22997C55.5714 9.31437 55.4089 9.42945 55.27 9.56997C55.1121 9.72807 54.9713 9.90237 54.85 10.09C54.7156 10.2914 54.6017 10.5058 54.51 10.73C54.4265 10.9085 54.3821 11.1029 54.38 11.3C54.3733 11.4789 54.4185 11.656 54.51 11.81C54.626 11.9878 54.7796 12.138 54.96 12.25C55.1351 12.3717 55.338 12.4473 55.55 12.47C55.7345 12.4809 55.919 12.4502 56.09 12.38C56.2732 12.2984 56.4394 12.183 56.58 12.04C56.7356 11.8762 56.8762 11.6989 57 11.51ZM57.91 12.04C57.7087 12.3539 57.4628 12.6369 57.18 12.88C56.9366 13.0822 56.654 13.232 56.35 13.32C56.0507 13.3899 55.7393 13.3899 55.44 13.32C55.0827 13.2513 54.7427 13.1119 54.44 12.91C54.152 12.7253 53.8955 12.4957 53.68 12.23C53.5034 12.0013 53.3834 11.734 53.33 11.45C53.2877 11.1478 53.315 10.8399 53.41 10.55C53.5248 10.1931 53.6934 9.85589 53.91 9.54997C54.1018 9.23778 54.3452 8.96049 54.63 8.72997C54.8679 8.52742 55.1481 8.38051 55.45 8.29997C55.7487 8.22504 56.0613 8.22504 56.36 8.29997C56.718 8.36649 57.0584 8.50606 57.36 8.70997C57.6467 8.88841 57.9005 9.11508 58.11 9.37997C58.2905 9.60637 58.4108 9.87466 58.46 10.16C58.5073 10.4574 58.4867 10.7616 58.4 11.05C58.2876 11.4059 58.1225 11.743 57.91 12.05M54 7.26997C53.9764 7.32979 53.9462 7.38681 53.91 7.43997C53.8911 7.47885 53.8638 7.51302 53.83 7.53997C53.807 7.54549 53.783 7.54549 53.76 7.53997C53.7374 7.54841 53.7126 7.54841 53.69 7.53997L52.2 6.85997L50.53 10.48C50.5361 10.4995 50.5361 10.5204 50.53 10.54H50.44H50.29L50.06 10.44L49.85 10.33C49.8005 10.31 49.7561 10.2792 49.72 10.24C49.6939 10.2185 49.6733 10.1911 49.66 10.16C49.66 10.16 49.66 10.16 49.66 10.09L51.52 5.99997C51.5512 5.92018 51.6121 5.85563 51.69 5.81997C51.7638 5.79048 51.8462 5.79048 51.92 5.81997L54.06 6.81997C54.06 6.81997 54.12 6.87997 54.12 6.94997C54.1095 7.05932 54.0753 7.16508 54.02 7.25997M48.11 6.99997C48.1796 6.77228 48.2232 6.53746 48.24 6.29997C48.2601 6.10522 48.2431 5.90841 48.19 5.71997C48.1372 5.55112 48.0406 5.39929 47.91 5.27997C47.7503 5.14602 47.5622 5.05026 47.36 4.99997C47.1507 4.94101 46.9293 4.94101 46.72 4.99997C46.5411 5.04037 46.3757 5.12651 46.24 5.24997C46.0918 5.37893 45.9696 5.53508 45.88 5.70997C45.782 5.90923 45.7017 6.11669 45.64 6.32997C45.5757 6.54925 45.5289 6.77329 45.5 6.99997C45.463 7.19154 45.463 7.38841 45.5 7.57997C45.5512 7.75243 45.6479 7.90789 45.78 8.02997C45.9431 8.16438 46.1346 8.26011 46.34 8.30997C46.5466 8.36332 46.7634 8.36332 46.97 8.30997C47.1505 8.2657 47.3182 8.18012 47.46 8.05997C47.6063 7.9215 47.728 7.75919 47.82 7.57997C47.934 7.39578 48.031 7.20166 48.11 6.99997ZM49.11 7.23997C49.0111 7.59401 48.8594 7.93113 48.66 8.23997C48.5011 8.5405 48.2753 8.80051 48 8.99997C47.738 9.15847 47.4444 9.25747 47.14 9.28997C46.8027 9.31604 46.4635 9.27873 46.14 9.17997C45.8088 9.09266 45.4945 8.95071 45.21 8.75997C44.9696 8.5975 44.7737 8.37749 44.64 8.11997C44.5086 7.84874 44.4403 7.55134 44.44 7.24997C44.444 6.86725 44.5012 6.48694 44.61 6.11997C44.7081 5.76732 44.8563 5.43057 45.05 5.11997C45.2226 4.85717 45.4472 4.63255 45.71 4.45997C45.9707 4.29868 46.2649 4.19946 46.57 4.16997C46.9073 4.13987 47.2473 4.17726 47.57 4.27997C47.8968 4.36591 48.2076 4.50438 48.49 4.68997C48.7276 4.85274 48.9202 5.07289 49.05 5.32997C49.1834 5.59735 49.2551 5.89122 49.26 6.18997C49.266 6.5694 49.212 6.9474 49.1 7.30997M42.72 8.15997C42.7256 8.17959 42.7256 8.20036 42.72 8.21997C42.6904 8.22718 42.6596 8.22718 42.63 8.21997H42.48H42.23H41.99H41.84C41.8106 8.20845 41.7859 8.1873 41.77 8.15997C41.7627 8.14977 41.7587 8.13753 41.7587 8.12497C41.7587 8.11241 41.7627 8.10017 41.77 8.08997L42.15 4.08997L41.09 3.98997C40.96 4.56997 40.84 5.05997 40.73 5.48997C40.62 5.91997 40.5 6.27997 40.38 6.58997C40.2924 6.84447 40.1784 7.08912 40.04 7.31997C39.9392 7.48733 39.8068 7.6334 39.65 7.74997C39.5161 7.85464 39.3578 7.92347 39.19 7.94997C39.0073 7.97096 38.8227 7.97096 38.64 7.94997H38.54L38.48 7.88997C38.4736 7.84688 38.4736 7.80307 38.48 7.75997C38.4749 7.69674 38.4749 7.6332 38.48 7.56997C38.48 7.45997 38.48 7.36997 38.48 7.30997C38.4658 7.26098 38.4658 7.20897 38.48 7.15997C38.4783 7.12493 38.4881 7.09029 38.508 7.06138C38.5278 7.03247 38.5567 7.01089 38.59 6.99997H38.67C38.7459 7.0148 38.8241 7.0148 38.9 6.99997C38.9864 6.95777 39.0643 6.90016 39.13 6.82997C39.2184 6.71265 39.2923 6.58505 39.35 6.44997C39.4576 6.23996 39.5415 6.01859 39.6 5.78997C39.69 5.52997 39.78 5.18997 39.88 4.78997C39.98 4.38997 40.08 3.91997 40.19 3.37997C40.2077 3.28162 40.2488 3.18899 40.31 3.10997C40.3774 3.08273 40.4527 3.08273 40.52 3.10997L42.94 3.33997C42.9787 3.34071 43.0167 3.35007 43.0513 3.36737C43.0859 3.38467 43.1162 3.40948 43.14 3.43997C43.1571 3.47766 43.166 3.51857 43.166 3.55997C43.166 3.60137 43.1571 3.64229 43.14 3.67997L42.72 8.15997ZM35.3 3.99997L34.76 6.13997L36.16 6.03997L35.3 3.99997ZM37.84 7.43997C37.84 7.52997 37.9 7.60997 37.91 7.65997C37.9205 7.67821 37.9261 7.69891 37.9261 7.71997C37.9261 7.74104 37.9205 7.76173 37.91 7.77997C37.8731 7.81765 37.8228 7.83922 37.77 7.83997H37.47H37.17H37H36.92C36.9181 7.81334 36.9181 7.7866 36.92 7.75997L36.52 6.75997L34.6 6.99997L34.36 7.99997C34.3656 8.03307 34.3656 8.06687 34.36 8.09997C34.3441 8.1273 34.3194 8.14845 34.29 8.15997H34.13H33.87H33.59C33.5386 8.16191 33.4885 8.14401 33.45 8.10997C33.4411 8.09122 33.4365 8.07073 33.4365 8.04997C33.4365 8.02922 33.4411 8.00872 33.45 7.98997C33.4389 7.91706 33.4389 7.84288 33.45 7.76997L34.61 3.29997C34.6027 3.26367 34.6027 3.22628 34.61 3.18997C34.6333 3.15913 34.6644 3.13499 34.7 3.11997C34.7597 3.11211 34.8203 3.11211 34.88 3.11997H35.2H35.55H35.77C35.8121 3.12767 35.8507 3.14871 35.88 3.17997C35.9063 3.21285 35.9266 3.25008 35.94 3.28997L37.84 7.43997ZM32.36 8.19997C32.37 8.22569 32.37 8.25425 32.36 8.27997L32.3 8.34997L32.15 8.40997C32.0774 8.4449 31.9998 8.46851 31.92 8.47997C31.8418 8.50422 31.7614 8.52096 31.68 8.52997H31.53C31.4974 8.54 31.4626 8.54 31.43 8.52997C31.4253 8.51025 31.4253 8.4897 31.43 8.46997L30.9 6.52997L29.11 6.99997L29.59 8.93997C29.5947 8.95105 29.5971 8.96295 29.5971 8.97497C29.5971 8.98699 29.5947 8.9989 29.59 9.00997L29.52 9.07997L29.38 9.14997L29.15 9.21997H28.91C28.857 9.22807 28.803 9.22807 28.75 9.21997C28.7204 9.22718 28.6896 9.22718 28.66 9.21997C28.6556 9.2106 28.6532 9.20035 28.6532 9.18997C28.6532 9.17959 28.6556 9.16935 28.66 9.15997L27.48 4.62997C27.4759 4.60682 27.4759 4.58312 27.48 4.55997L27.54 4.48997L27.69 4.42997L27.92 4.34997H28.16H28.32C28.3489 4.3383 28.3811 4.3383 28.41 4.34997V4.40997L28.85 6.16997L30.64 5.71997L30.2 3.95997C30.1953 3.9489 30.1929 3.93699 30.1929 3.92497C30.1929 3.91295 30.1953 3.90105 30.2 3.88997C30.2139 3.86207 30.2346 3.83803 30.26 3.81997L30.4 3.74997L30.64 3.67997L30.88 3.62997H31.03C31.0589 3.6183 31.0911 3.6183 31.12 3.62997H31.17L32.36 8.19997ZM20.1 8.68997L19.67 8.99997C19.5249 9.07857 19.3932 9.17984 19.28 9.29997C19.2124 9.37362 19.1643 9.463 19.14 9.55997C19.1152 9.64827 19.1152 9.74167 19.14 9.82997C19.1715 9.9235 19.2117 10.0139 19.26 10.1C19.3132 10.1845 19.3809 10.259 19.46 10.32C19.5344 10.3742 19.6197 10.4117 19.71 10.43C19.809 10.4496 19.911 10.4496 20.01 10.43C20.1577 10.3808 20.2987 10.3136 20.43 10.23L20.88 9.93997L20.1 8.68997ZM23.1 11.57C23.1047 11.581 23.1071 11.5929 23.1071 11.605C23.1071 11.617 23.1047 11.6289 23.1 11.64C23.1091 11.6659 23.1091 11.6941 23.1 11.72L22.99 11.83L22.79 11.97L22.58 12.09L22.43 12.15H22.33C22.3247 12.1337 22.3247 12.1162 22.33 12.1L21.33 10.54L21.02 10.74C20.9162 10.7988 20.8246 10.8769 20.75 10.97C20.6975 11.038 20.6601 11.1164 20.64 11.2C20.6248 11.296 20.6248 11.3939 20.64 11.49C20.6519 11.6112 20.6719 11.7315 20.7 11.85L20.96 12.95V13.05C20.9454 13.0863 20.9252 13.12 20.9 13.15L20.78 13.26L20.56 13.4C20.4838 13.4529 20.4036 13.4997 20.32 13.54L20.17 13.6H20H19.95V13.51C19.9292 13.4546 19.9125 13.3978 19.9 13.34L19.7 12.34C19.6707 12.2221 19.6539 12.1014 19.65 11.98C19.64 11.8769 19.64 11.7731 19.65 11.67C19.6675 11.5818 19.6909 11.495 19.72 11.41C19.753 11.3279 19.7967 11.2506 19.85 11.18C19.7071 11.2241 19.5593 11.251 19.41 11.26C19.2778 11.2851 19.1421 11.2851 19.01 11.26C18.8845 11.2165 18.7689 11.1486 18.67 11.06C18.5535 10.9651 18.4553 10.8499 18.38 10.72C18.2653 10.5476 18.187 10.3537 18.15 10.15C18.1162 9.95557 18.1334 9.75572 18.2 9.56997C18.2717 9.36538 18.3801 9.17559 18.52 9.00997C18.7432 8.77857 18.9952 8.57691 19.27 8.40997L20.27 7.76997C20.3381 7.7471 20.4119 7.7471 20.48 7.76997C20.5237 7.77881 20.5646 7.79794 20.5994 7.82576C20.6341 7.85359 20.6618 7.88932 20.68 7.92997L23.1 11.57ZM15.1 12.63L15.98 14.63L17 13.74L15.1 12.63ZM19.2 13.83C19.2688 13.8647 19.3327 13.9084 19.39 13.96C19.4079 13.9724 19.4226 13.9888 19.433 14.0079C19.4434 14.027 19.4492 14.0482 19.45 14.07C19.4364 14.1201 19.4086 14.1652 19.37 14.2C19.37 14.26 19.25 14.32 19.16 14.41C19.0847 14.479 19.0045 14.5425 18.92 14.6L18.79 14.7C18.7572 14.7084 18.7228 14.7084 18.69 14.7H18.61L17.7 14.18L16.32 15.41L16.73 16.34C16.7338 16.3732 16.7338 16.4067 16.73 16.44C16.737 16.4539 16.7407 16.4693 16.7407 16.485C16.7407 16.5006 16.737 16.516 16.73 16.53C16.704 16.5785 16.6703 16.6224 16.63 16.66C16.63 16.71 16.52 16.77 16.44 16.85L16.23 17.02C16.1898 17.051 16.1408 17.0685 16.09 17.07C16.052 17.0594 16.0196 17.0342 16 17C15.9587 16.9376 15.9251 16.8705 15.9 16.8L14.12 12.51C14.1007 12.4765 14.0905 12.4386 14.0905 12.4C14.0905 12.3614 14.1007 12.3234 14.12 12.29L14.24 12.14L14.47 11.93L14.74 11.7C14.7933 11.6508 14.8541 11.6103 14.92 11.58C14.9596 11.5719 15.0004 11.5719 15.04 11.58L15.16 11.63L19.2 13.83ZM15.31 17.77C15.3144 17.7793 15.3168 17.7896 15.3168 17.8C15.3168 17.8103 15.3144 17.8206 15.31 17.83C15.3194 17.8626 15.3194 17.8973 15.31 17.93L15.24 18.06C15.1988 18.1303 15.152 18.1972 15.1 18.26L14.93 18.44C14.8989 18.4789 14.8617 18.5127 14.82 18.54C14.791 18.5507 14.759 18.5507 14.73 18.54C14.7191 18.5453 14.7071 18.548 14.695 18.548C14.6829 18.548 14.6709 18.5453 14.66 18.54L13.08 17.3L11.93 18.75L13.49 20C13.4944 20.0093 13.4968 20.0196 13.4968 20.03C13.4968 20.0403 13.4944 20.0506 13.49 20.06C13.49 20.06 13.49 20.11 13.49 20.15C13.4728 20.1995 13.4492 20.2465 13.42 20.29C13.3788 20.3603 13.332 20.4272 13.28 20.49C13.2283 20.5545 13.1715 20.6147 13.11 20.67C13.078 20.7119 13.037 20.7461 12.99 20.77C12.9641 20.7791 12.9359 20.7791 12.91 20.77C12.8989 20.7746 12.887 20.7771 12.875 20.7771C12.863 20.7771 12.8511 20.7746 12.84 20.77L9.22 17.87C9.19833 17.8547 9.18107 17.834 9.17 17.81C9.16153 17.7772 9.16153 17.7428 9.17 17.71C9.17 17.71 9.17 17.63 9.24 17.57L9.38 17.38L9.54 17.19C9.58023 17.1528 9.62374 17.1193 9.67 17.09H9.75H9.82L11.24 18.23L12.39 16.78L11 15.64C11 15.64 11 15.64 11 15.58C10.9906 15.5473 10.9906 15.5126 11 15.48C11.0196 15.4348 11.0431 15.3913 11.07 15.35C11.1126 15.2781 11.1629 15.211 11.22 15.15L11.38 14.96L11.49 14.86H11.59H11.66L15.31 17.77ZM10.51 21.9C10.4099 21.8443 10.302 21.8038 10.19 21.78C10.0949 21.755 9.99505 21.755 9.9 21.78C9.7935 21.8114 9.697 21.87 9.62 21.95C9.49833 22.0732 9.39706 22.2149 9.32 22.37L9 22.91L10.38 23.68L10.67 23.15C10.7646 22.9959 10.8322 22.8268 10.87 22.65C10.8967 22.5416 10.8967 22.4284 10.87 22.32C10.8421 22.2252 10.7905 22.1392 10.72 22.07C10.6621 21.9998 10.5907 21.942 10.51 21.9ZM10.94 20.95C11.1283 21.0622 11.3 21.2002 11.45 21.36C11.587 21.5191 11.6861 21.7071 11.74 21.91C11.7903 22.144 11.7903 22.386 11.74 22.62C11.6631 22.9717 11.5315 23.3091 11.35 23.62L10.75 24.7L10.67 24.8C10.641 24.8107 10.609 24.8107 10.58 24.8C10.5406 24.8097 10.4994 24.8097 10.46 24.8C10.4138 24.8089 10.3662 24.8089 10.32 24.8L6.39 22.6V22.51C6.40276 22.4542 6.42294 22.4004 6.45 22.35C6.48091 22.2771 6.5177 22.2069 6.56 22.14C6.59502 22.0672 6.63512 21.9971 6.68 21.93L6.78 21.81C6.80588 21.8008 6.83412 21.8008 6.86 21.81C6.88572 21.7999 6.91428 21.7999 6.94 21.81L8.4 22.63L8.74 22.02C8.88095 21.7551 9.05575 21.5097 9.26 21.29C9.40926 21.1363 9.59009 21.0169 9.79 20.94C9.97455 20.8689 10.1731 20.8415 10.37 20.86C10.5879 20.8783 10.7993 20.9431 10.99 21.05M9.85 26.21C9.85 26.21 9.85 26.21 9.91 26.21C9.97 26.21 9.91 26.26 9.91 26.3C9.91312 26.3533 9.91312 26.4067 9.91 26.46C9.88768 26.5381 9.86097 26.6149 9.83 26.69C9.80516 26.7686 9.77509 26.8454 9.74 26.92C9.72094 26.9655 9.6975 27.009 9.67 27.05C9.64855 27.0761 9.62111 27.0967 9.59 27.11C9.57909 27.1153 9.56713 27.118 9.555 27.118C9.54287 27.118 9.5309 27.1153 9.52 27.11L5.75 25.8L5.4 26.8C5.93 27.07 6.4 27.31 6.76 27.52C7.12 27.73 7.47 27.94 7.76 28.12C7.98271 28.2773 8.1933 28.4511 8.39 28.64C8.52692 28.7776 8.63562 28.9407 8.71 29.12C8.77912 29.277 8.80667 29.4492 8.79 29.62C8.7752 29.8047 8.73482 29.9864 8.67 30.16C8.65561 30.188 8.63889 30.2148 8.62 30.24C8.61181 30.2542 8.60022 30.2663 8.58627 30.275C8.57231 30.2837 8.55642 30.2889 8.54 30.29C8.50064 30.3001 8.45935 30.3001 8.42 30.29L8.23 30.23L8 30.13C7.94802 30.1139 7.90022 30.0866 7.86 30.05C7.84223 30.0488 7.82493 30.0438 7.80936 30.0351C7.7938 30.0265 7.78035 30.0145 7.77 30C7.76514 29.9769 7.76514 29.9531 7.77 29.93C7.78458 29.854 7.78458 29.7759 7.77 29.7C7.75801 29.6048 7.71994 29.5148 7.66 29.44C7.57024 29.3209 7.46612 29.2135 7.35 29.12C7.16979 28.9732 6.9793 28.8395 6.78 28.72C6.54 28.5733 6.24 28.4033 5.88 28.21C5.52 28.01 5.09 27.8 4.6 27.55C4.50841 27.5169 4.42848 27.4578 4.37 27.38C4.35514 27.3452 4.34749 27.3078 4.34749 27.27C4.34749 27.2322 4.35514 27.1947 4.37 27.16L5.19 24.87C5.20177 24.8327 5.22119 24.7984 5.24702 24.7691C5.27286 24.7398 5.30453 24.7163 5.34 24.7C5.37769 24.6828 5.4186 24.674 5.46 24.674C5.5014 24.674 5.54231 24.6828 5.58 24.7L9.85 26.21ZM4.06 32.43L6 33.49L6.24 32.11L4.06 32.43ZM8.06 30.82C8.13646 30.812 8.21354 30.812 8.29 30.82C8.29 30.82 8.38 30.82 8.4 30.87C8.42 30.92 8.4 30.95 8.4 31.02C8.4 31.09 8.4 31.19 8.4 31.31C8.4 31.43 8.35 31.54 8.34 31.61C8.33 31.68 8.34 31.74 8.34 31.78L8.28 31.84C8.25082 31.8499 8.21918 31.8499 8.19 31.84L7.19 31.99L6.87 33.83L7.77 34.3H7.85C7.85721 34.3295 7.85721 34.3604 7.85 34.39C7.86001 34.4428 7.86001 34.4971 7.85 34.55C7.85747 34.6365 7.85747 34.7235 7.85 34.81C7.83655 34.9013 7.8165 34.9915 7.79 35.08C7.78818 35.1054 7.78101 35.1301 7.76894 35.1525C7.75688 35.1749 7.74019 35.1945 7.72 35.21C7.67801 35.2253 7.63198 35.2253 7.59 35.21L7.39 35.11L3.19 32.93L3.09 32.86C3.0811 32.8238 3.0811 32.7861 3.09 32.75C3.08095 32.6903 3.08095 32.6296 3.09 32.57C3.09 32.49 3.09 32.39 3.09 32.26C3.09 32.13 3.09 31.99 3.16 31.9C3.17581 31.8321 3.19585 31.7653 3.22 31.7C3.24142 31.6657 3.26847 31.6353 3.3 31.61C3.34257 31.5985 3.38742 31.5985 3.43 31.61L8.06 30.82ZM4.22 36.58C4.07199 36.5656 3.92295 36.5934 3.79 36.66C3.69062 36.7083 3.60474 36.7804 3.54 36.87C3.48047 36.9563 3.44273 37.0558 3.43 37.16C3.41918 37.2597 3.41918 37.3603 3.43 37.46V37.89H5.1V37.44C5.08637 37.3121 5.05262 37.1873 5 37.07C4.96631 36.9703 4.90781 36.8808 4.83 36.81C4.75075 36.7328 4.65501 36.6747 4.55 36.64C4.43785 36.5993 4.31931 36.5789 4.2 36.58M4.2 35.52C4.45043 35.5252 4.69781 35.576 4.93 35.67C5.13399 35.7626 5.31497 35.8992 5.46 36.07C5.61153 36.2502 5.72087 36.462 5.78 36.69C5.8538 36.9669 5.88416 37.2537 5.87 37.54V38H7.45C7.46941 37.9931 7.49059 37.9931 7.51 38C7.51921 38.0293 7.51921 38.0607 7.51 38.09C7.51375 38.1399 7.51375 38.19 7.51 38.24C7.51508 38.3199 7.51508 38.4001 7.51 38.48C7.51617 38.5632 7.51617 38.6468 7.51 38.73C7.51661 38.7798 7.51661 38.8302 7.51 38.88C7.51489 38.9064 7.51489 38.9335 7.51 38.96H7.44L2.99 38.84C2.94212 38.842 2.89434 38.8342 2.84962 38.817C2.8049 38.7998 2.76418 38.7736 2.73 38.74C2.67008 38.6707 2.63801 38.5816 2.64 38.49V37.32V36.99C2.65327 36.8623 2.6733 36.7355 2.7 36.61C2.74229 36.4567 2.80272 36.309 2.88 36.17C2.95808 36.0246 3.06332 35.8957 3.19 35.79C3.31414 35.6796 3.46089 35.5977 3.62 35.55C3.79886 35.4996 3.98421 35.476 4.17 35.48M7.17 40.29H7.36H7.48C7.50301 40.2845 7.52699 40.2845 7.55 40.29C7.55467 40.3011 7.55708 40.313 7.55708 40.325C7.55708 40.337 7.55467 40.3489 7.55 40.36L7.84 42.82C7.84678 42.8981 7.82551 42.9761 7.78 43.04C7.75517 43.0757 7.72236 43.1051 7.68417 43.126C7.64599 43.1468 7.60347 43.1584 7.56 43.16L3.27 43.65C3.2267 43.6625 3.18089 43.6636 3.13706 43.653C3.09324 43.6425 3.05289 43.6208 3.02 43.59C2.96578 43.54 2.93046 43.4729 2.92 43.4L2.69 41C2.68532 40.9802 2.68532 40.9597 2.69 40.94C2.70523 40.9183 2.72593 40.901 2.75 40.89C2.78966 40.8826 2.83033 40.8826 2.87 40.89H3.06H3.24H3.36C3.38271 40.8824 3.40729 40.8824 3.43 40.89C3.43686 40.9094 3.43686 40.9306 3.43 40.95L3.64 42.7L4.83 42.56L4.7 41.06C4.69238 41.0373 4.69238 41.0127 4.7 40.99L4.76 40.94C4.79613 40.9311 4.83387 40.9311 4.87 40.94H5.05H5.35H5.42V41L5.59 42.48L7 42.3L6.8 40.53C6.79514 40.5069 6.79514 40.4831 6.8 40.46C6.81523 40.4383 6.83593 40.421 6.86 40.41C6.89966 40.4026 6.94033 40.4026 6.98 40.41H7.16M4.51 47L4.83 48.11L5.83 47.96L6.61 47.88H7.2H7.64L8 47.9L8.26 47.99L7.7 46.06L4.51 47ZM9.17 44H9.23C9.25289 43.9936 9.2771 43.9936 9.3 44C9.32602 44.0367 9.34625 44.0771 9.36 44.12L9.43 44.32C9.43 44.41 9.43 44.47 9.48 44.53C9.48431 44.5765 9.48431 44.6234 9.48 44.67C9.48568 44.6963 9.48568 44.7236 9.48 44.75H9.42L8.3 45.07L9.2 48.23L10.31 48H10.38C10.4079 48.0139 10.4319 48.0345 10.45 48.06L10.51 48.18L10.58 48.38C10.58 48.47 10.58 48.54 10.63 48.6C10.6343 48.6432 10.6343 48.6867 10.63 48.73C10.6372 48.7561 10.6372 48.7838 10.63 48.81H10.57L8.86 49.3C8.83605 49.3151 8.80831 49.3231 8.78 49.3231C8.75168 49.3231 8.72395 49.3151 8.7 49.3C8.67764 49.2871 8.65813 49.2699 8.64265 49.2492C8.62718 49.2286 8.61607 49.205 8.61 49.18L8.54 49C8.44001 48.9595 8.33613 48.9293 8.23 48.91C8.11425 48.8685 7.99286 48.8449 7.87 48.84H7.4H6.74C6.49 48.84 6.19 48.9 5.84 48.95C5.49 49 5.09 49.06 4.63 49.14C4.54485 49.1629 4.45515 49.1629 4.37 49.14C4.33508 49.1259 4.30459 49.1027 4.28172 49.0728C4.25885 49.0429 4.24444 49.0074 4.24 48.97L3.54 46.54C3.52246 46.506 3.51331 46.4682 3.51331 46.43C3.51331 46.3917 3.52246 46.354 3.54 46.32C3.58703 46.2502 3.6583 46.2003 3.74 46.18L7.41 45.18L7.29 44.78C7.27687 44.7554 7.27 44.7279 7.27 44.7C7.27 44.6721 7.27687 44.6446 7.29 44.62C7.29 44.62 7.36 44.56 7.42 44.54L9.17 44ZM9.42 50L9.59 49.93H9.71H9.79H9.84L10.9 52.18C10.9244 52.2513 10.9244 52.3287 10.9 52.4C10.8871 52.4425 10.8639 52.4811 10.8325 52.5125C10.8011 52.5439 10.7625 52.5671 10.72 52.58L6.82 54.42C6.77925 54.4388 6.73489 54.4485 6.69 54.4485C6.64511 54.4485 6.60075 54.4388 6.56 54.42C6.49042 54.3858 6.43415 54.3295 6.4 54.26L5.4 52.02C5.39532 52.0002 5.39532 51.9797 5.4 51.96C5.39672 51.9368 5.39672 51.9132 5.4 51.89L5.5 51.81L5.67 51.72L5.84 51.65H5.96H6L6.76 53.24L7.85 52.73L7.21 51.38C7.20448 51.357 7.20448 51.333 7.21 51.31V51.24L7.31 51.16L7.47 51.08L7.64 51.01H7.75H7.83C7.83351 51.0265 7.83351 51.0435 7.83 51.06L8.46 52.42L9.72 51.82L8.96 50.21C8.95532 50.1989 8.95291 50.187 8.95291 50.175C8.95291 50.1629 8.95532 50.151 8.96 50.14C8.96 50.14 8.96 50.14 8.96 50.07L9.06 49.99L9.42 50ZM10.21 58.19C10.3219 58.317 10.4536 58.425 10.6 58.51C10.7176 58.5842 10.8514 58.6288 10.99 58.64C11.1121 58.6645 11.2379 58.6645 11.36 58.64C11.4852 58.5982 11.6032 58.5375 11.71 58.46C11.8367 58.3723 11.9511 58.2681 12.05 58.15C12.1368 58.053 12.1985 57.9363 12.23 57.81C12.26 57.6783 12.26 57.5416 12.23 57.41C12.198 57.2408 12.1371 57.0785 12.05 56.93L10.21 58.19ZM10 55.85C9.87711 55.9309 9.76605 56.0285 9.67 56.14C9.58324 56.237 9.52145 56.3537 9.49 56.48C9.45965 56.6116 9.45965 56.7484 9.49 56.88C9.52201 57.0491 9.5829 57.2115 9.67 57.36L11.53 56.07C11.4209 55.9375 11.2888 55.8257 11.14 55.74C11.0234 55.6761 10.8953 55.6362 10.7631 55.6224C10.6308 55.6087 10.4972 55.6215 10.37 55.66C10.2413 55.7053 10.12 55.7693 10.01 55.85M9.38 55C9.5892 54.8469 9.82737 54.738 10.08 54.68C10.3106 54.6299 10.5494 54.6299 10.78 54.68C11.0276 54.7332 11.2622 54.8352 11.47 54.98C11.7218 55.1536 11.9474 55.3623 12.14 55.6L12.6 55.27C12.6257 55.2599 12.6543 55.2599 12.68 55.27C12.7059 55.2608 12.7341 55.2608 12.76 55.27L12.87 55.37L13.01 55.57C13.06 55.65 13.11 55.71 13.14 55.77C13.1645 55.8111 13.1846 55.8547 13.2 55.9C13.2085 55.9328 13.2085 55.9672 13.2 56C13.1899 56.0246 13.1724 56.0456 13.15 56.06L12.68 56.39C12.8461 56.641 12.9773 56.9135 13.07 57.2C13.1462 57.4353 13.1701 57.6844 13.14 57.93C13.1092 58.1633 13.0235 58.3861 12.89 58.58C12.7302 58.8013 12.5341 58.9941 12.31 59.15C12.1057 59.2945 11.8745 59.3965 11.63 59.45C11.4027 59.5002 11.1673 59.5002 10.94 59.45C10.693 59.4003 10.4584 59.3017 10.25 59.16C9.99635 58.9887 9.7704 58.7796 9.58 58.54L9.13 58.85H9.06C9.03351 58.8543 9.00649 58.8543 8.98 58.85C8.94201 58.8178 8.90839 58.7808 8.88 58.74C8.82249 58.6829 8.77212 58.6191 8.73 58.55L8.6 58.35C8.57336 58.3064 8.55315 58.2593 8.54 58.21C8.53297 58.196 8.5293 58.1806 8.5293 58.165C8.5293 58.1493 8.53297 58.1339 8.54 58.12L9 57.79C8.85106 57.5422 8.73349 57.2768 8.65 57C8.57383 56.7646 8.54994 56.5155 8.58 56.27C8.60254 56.0362 8.68522 55.8123 8.82 55.62C8.96963 55.3826 9.15908 55.1729 9.38 55Z" fill="white"/>
<path d="M53.67 61.94L53.52 61.76C53.2225 61.4716 52.8642 61.2536 52.4713 61.1221C52.0785 60.9905 51.6611 60.9488 51.25 61C50.6558 61.0089 50.0649 61.0895 49.49 61.24C48.92 61.38 48.21 61.61 47.36 61.9C47.2705 61.7098 47.1525 61.5344 47.01 61.38C46.5716 60.9964 46.0576 60.7092 45.5012 60.537C44.9448 60.3647 44.3584 60.3112 43.78 60.38C41.0302 60.5268 38.3252 61.1388 35.78 62.19C34.023 62.9166 32.1501 63.323 30.25 63.39C28.3656 63.3465 26.5373 62.7405 25 61.65L24.31 61.24L23.44 60.72L23.28 61.72L21.48 72.28L22.13 72.56L22.44 70.73L23.91 61.83L24.6 62.24C25.7696 63.0138 27.0764 63.5569 28.45 63.84C29.0506 63.9482 29.6597 64.0017 30.27 64C32.2494 63.9317 34.2004 63.5083 36.03 62.75C38.5001 61.7352 41.1234 61.1436 43.79 61C44.2293 60.992 44.6682 61.0289 45.1 61.11C45.6367 61.1762 46.1362 61.4189 46.52 61.8C46.7527 62.0552 46.8873 62.3848 46.9 62.73C47.95 62.38 48.9 62.04 49.66 61.87C50.1798 61.7359 50.7133 61.6621 51.25 61.65H51.72L52.02 61.7C52.2443 61.7417 52.4604 61.8193 52.66 61.93C52.87 62.04 53.29 61.65 53.29 61.65L51.46 73.65L52.07 73.39C52.12 73.1 52.16 72.8 52.21 72.48C52.41 71.25 52.57 70.36 52.57 70.35V70.12V69.8399C52.71 68.9899 52.84 68.15 52.97 67.36C53.34 65 53.66 63.08 53.7 62.8V62.57V62.26L53.67 61.94Z" fill="#0066B3"/>
<path d="M38 65.66C30.7819 65.5966 23.8753 62.711 18.7575 57.6205C13.6398 52.53 10.7174 45.6388 10.6155 38.4212C10.5135 31.2036 13.2402 24.2326 18.2122 18.9996C23.1842 13.7667 30.0066 10.6872 37.22 10.42H38.03C45.2943 10.4101 52.27 13.2623 57.4462 18.359C62.6225 23.4557 65.5825 30.3864 65.685 37.65C65.7876 44.9135 63.0245 51.925 57.9943 57.1659C52.964 62.4067 46.0716 65.4548 38.81 65.65H38M38 66.33H38.83C46.2749 66.1325 53.3421 63.0093 58.5002 57.6371C63.6582 52.265 66.4916 45.0767 66.3864 37.6299C66.2812 30.1832 63.2457 23.0778 57.9379 17.8536C52.6301 12.6293 45.4775 9.70707 38.03 9.72001H37.2C29.6917 9.8261 22.5331 12.9105 17.299 18.2947C12.0648 23.6788 9.18391 30.9217 9.29 38.43C9.39609 45.9383 12.4805 53.0969 17.8646 58.331C23.2488 63.5652 30.4917 66.4461 38 66.34" fill="white"/>
<path d="M43.79 61C44.2717 60.9411 44.7603 60.9808 45.2261 61.1166C45.692 61.2524 46.1254 61.4815 46.5 61.79C46.7371 62.0505 46.8721 62.3879 46.88 62.74C47.94 62.38 48.88 62.04 49.66 61.87C50.1798 61.7359 50.7133 61.6621 51.25 61.65C52.47 61.65 52.76 61.9 52.85 61.99L53.29 61.67L50.83 77.31L50.17 76.94C49.8087 76.7536 49.4064 76.6607 49 76.67C47.39 76.8514 45.8216 77.3009 44.36 78C43.2852 78.5068 42.1586 78.8958 41 79.16C40.6889 79.2086 40.3748 79.2353 40.06 79.24C38.61 79.24 38.38 78.46 38.35 78.07L38.44 77.26L37.28 77.7C36.51 78 35.78 78.28 35.14 78.5C33.8493 78.922 32.4978 79.1281 31.14 79.11C27.8166 79.1628 24.5499 78.2454 21.74 76.47L21.48 76.28L23.87 61.83L24.56 62.24C26.2487 63.3913 28.2462 64.0048 30.29 64C32.2694 63.9318 34.2204 63.5084 36.05 62.75C38.5141 61.7384 41.1303 61.1468 43.79 61Z" fill="white"/>
<path d="M39.68 72.09L38.89 77.77C38.68 78.77 39.89 78.77 40.89 78.64C43.48 78.25 48.01 75.15 50.39 76.48C50.74 73.65 51.39 70.03 51.39 70.03C51.39 70.03 50.8 69.21 48.57 69.75C46.34 70.29 41.36 72.43 39.69 72.09" fill="#ED1C24"/>
<path d="M51.13 71.66C51.38 70.08 51.64 68.39 51.88 66.89C51.4274 66.6637 50.9342 66.5303 50.4292 66.4976C49.9243 66.465 49.4179 66.5338 48.94 66.7C46.77 67.23 42.02 69.25 40.23 69.06L39.57 73.29C39.77 73.98 40.57 74.15 41.63 74.06C44.22 73.85 48.74 70.42 51.13 71.66Z" fill="#0066B3"/>
<path d="M38.83 78.14C38.99 77.06 40.48 77.02 41.46 77.07C42.44 77.12 44.26 77.07 44.41 76.3C44.59 75.24 44.67 73.94 44.67 73.94L39.49 74L38.83 78.14Z" fill="#BE1E2D"/>
<path d="M22.08 76.05L23.28 68.87C25.37 70.11 28.65 71.87 35.35 69.3C40.72 67.24 45.71 66.87 45.47 69L44.37 76.35C44.77 73.83 38.37 76.84 34.98 78.02C31.33 79.29 25.3 78.37 22.08 76.02" fill="#ED1C24"/>
<path d="M35.59 67.81C29.11 70.29 25.71 68.08 23.59 66.81L22.81 71.46C24.6853 72.6846 26.83 73.4355 29.0596 73.648C31.2892 73.8605 33.5371 73.5283 35.61 72.68C38.61 71.52 44.48 69.5 45.13 71.31C45.36 69.79 45.59 68.18 45.79 66.78C44.96 65.41 40.33 65.98 35.57 67.78" fill="#0066B3"/>
<path d="M50.69 42.56C50.69 42.5 50.57 42.27 50.43 41.96C50.5458 42.028 50.6661 42.0881 50.79 42.14L51.01 42.53C50.9045 42.5426 50.8007 42.5661 50.7 42.6M48.14 42.6C48.14 42.07 48.01 41.73 47.85 40.6C48.1229 41.3158 48.3533 42.047 48.54 42.79C48.4105 42.7329 48.2768 42.6861 48.14 42.65M47 49.1C47 49.1 47 49.1 47 49.18ZM47 49.89C47.004 49.8501 47.004 49.8099 47 49.77C46.9944 49.8031 46.9944 49.8369 47 49.87M50.58 53.44L50 54.71L49.33 54.39L49.78 53.39C50.0621 53.4266 50.3478 53.4266 50.63 53.39M51.25 53.21L51.09 53.55L50.72 53.38C50.9028 53.3444 51.0807 53.2874 51.25 53.21ZM31 56.51C31.0324 56.3854 31.1022 56.2737 31.2 56.19C31.1875 56.2628 31.1875 56.3372 31.2 56.41L31 56.51ZM29.04 49.81C29.0456 49.7769 29.0456 49.7431 29.04 49.71C29.0454 49.7498 29.0454 49.7902 29.04 49.83M26.31 44.9L25.55 44.55C25.5096 44.3671 25.4296 44.1953 25.3155 44.0467C25.2015 43.8981 25.0562 43.7763 24.89 43.69C24.9526 43.5677 24.9784 43.4298 24.9642 43.2931C24.95 43.1564 24.8964 43.0268 24.81 42.92C25.21 42.41 25.89 40.92 26.65 39.72C26.48 41.01 24.28 42.72 26.02 43.97C27.16 43.8 27.77 42.44 28.22 40.57C28.44 41.01 27.07 42.94 28.93 43.57C29.75 43.42 30.35 41.83 30.14 40.64C30.2314 40.7003 30.3183 40.7671 30.4 40.84C30.65 40.57 31.15 40.57 31.33 40.22L31.5 40.33C32.06 41.26 32.1 43.02 31.33 43.66C31.5586 43.6717 31.7871 43.6342 32 43.55C32 43.55 32 43.55 31.9 43.71L31.83 43.82C31.4 44.23 31.28 44.34 30.03 44.16C30.0459 44.2976 30.0901 44.4304 30.16 44.55C29.54 44.81 28.53 44.77 28.25 46.47C28.2348 46.4483 28.2141 46.4311 28.19 46.42H28.14C28.14 46.42 28.06 46.42 28.05 46.35C28.04 46.28 28.05 46.27 27.98 46.25H27.73L27.54 46.38C27.38 46.45 27.4 46.29 27.12 46.69C27.12 46.69 27.12 46.69 27.12 46.85H27.05L26.79 46.72C26.7094 46.6964 26.6322 46.6628 26.56 46.62L26.25 46.53L26.4 46.6L26.75 46.76L26.96 46.85L27 47L26.16 46.61H26.11C26.0476 46.5713 25.9804 46.541 25.91 46.52L25.6 46.43L26.31 44.9ZM52.79 41.31C52.7701 41.3649 52.7701 41.425 52.79 41.48L52.7 41.35C52.7181 41.2504 52.7555 41.1553 52.81 41.07L52.87 41.14C52.8295 41.1891 52.802 41.2475 52.79 41.31ZM50.14 41.31L50.4 41.41L50.56 41.71H50.33L50.14 41.29M44.71 44.2C44.4256 44.0685 44.1958 43.8423 44.06 43.56C44.2729 43.6442 44.5014 43.6817 44.73 43.67C43.96 43.03 44 41.27 44.56 40.34L44.73 40.23C44.91 40.58 45.41 40.58 45.66 40.85C45.7417 40.7771 45.8286 40.7103 45.92 40.65C45.9278 41.3587 45.9746 42.0664 46.06 42.77C45.4663 43.0869 44.9923 43.589 44.71 44.2ZM47.45 54.8L46.13 54.19L47 52.24C47.3813 52.5504 47.7975 52.8155 48.24 53.03L47.45 54.8ZM29.08 49.51V49.62C29.0836 49.5934 29.0836 49.5665 29.08 49.54M52.08 40.45L52.39 40.54L52.47 40.64L52.15 40.55C52.1325 40.5129 52.1089 40.4791 52.08 40.45ZM49.72 40.45L49.9 40.55L50.1 40.91H49.93C49.8633 40.75 49.7933 40.6 49.72 40.46M46.07 49.61C46.0654 49.6565 46.0654 49.7034 46.07 49.75C46.0756 49.7035 46.0756 49.6565 46.07 49.61ZM42.4 55.68L43 56C43 56 42.82 56.24 42.2 56.24C42.1954 56.0718 42.1754 55.9044 42.14 55.74H42.36M36.36 54.48L36.92 54.2C36.8083 54.6847 36.7248 55.1756 36.67 55.67C36.487 55.6851 36.303 55.6851 36.12 55.67C36.1614 55.2632 36.2417 54.8614 36.36 54.47M33.11 56L33.43 55.84C33.4241 55.9566 33.4241 56.0734 33.43 56.19C33.3697 56.1803 33.312 56.1585 33.2605 56.1258C33.2089 56.0932 33.1645 56.0503 33.13 56M36.87 53.07L37.16 53.2C37.1553 53.2499 37.1553 53.3001 37.16 53.35L36.7 53.58C36.76 53.41 36.83 53.24 36.9 53.07M42.8 47.41C41.8793 47.3091 40.9545 47.559 40.21 48.11C40.3086 47.87 40.4611 47.656 40.6557 47.4845C40.8503 47.3129 41.0818 47.1885 41.3323 47.1208C41.5827 47.0531 41.8453 47.044 42.0999 47.0941C42.3544 47.1443 42.594 47.2524 42.8 47.41ZM41.2 51.28C40.8492 51.1225 40.5143 50.9316 40.2 50.71H40.25H40.48C40.8443 50.7345 41.1848 50.8994 41.43 51.17L41.2 51.28ZM36.6 51.28H36.51C36.61 51.17 36.71 51.06 36.8 50.94C36.73 51.05 36.67 51.16 36.6 51.26M37.53 51.26C37.53 51.15 37.6 51.04 37.62 50.93C37.62 51.04 37.62 51.15 37.62 51.26M40.41 52.38L40.76 52.21C41.1711 52.4946 41.5442 52.8306 41.87 53.21C41.4037 53.0322 40.9551 52.8113 40.53 52.55L40.41 52.4M40.16 51.77V51.8ZM38.49 51C38.5327 51.1961 38.5861 51.3897 38.65 51.58H38.57C38.57 51.4 38.51 51.22 38.49 51.03M41.59 48.93C41.8 49.63 42.2 50.27 43.67 49.61C43.6684 49.7478 43.7143 49.882 43.8 49.99L41.56 51.1C41.56 50.4 41.02 50.1 40.56 49.78C40.72 49.56 40.56 49.46 41.56 48.88M41.56 48.88C41.9335 48.7803 42.3265 48.7803 42.7 48.88C42.5277 48.9831 42.3307 49.0375 42.13 49.0375C41.9292 49.0375 41.7323 48.9831 41.56 48.88ZM44.17 49.55L44.31 49.66H44.37L44.03 49.83C44.0711 49.7437 44.1179 49.6602 44.17 49.58M44 52.94C43.3698 52.45 42.701 52.0119 42 51.63L44.84 50.21C44.9017 50.6986 44.8588 51.1947 44.7139 51.6654C44.5691 52.1361 44.3257 52.5706 44 52.94ZM35.41 50.85H35.36L35.26 50.8L35.5 50.73C35.6 50.73 35.59 50.73 35.98 50.67C35.8624 50.7646 35.7389 50.8514 35.61 50.93H35.51M34.41 50.42L34.27 50.35C34.27 50.35 34.27 50.35 34.18 50.35C34.18 50.35 34.18 50.35 34.08 50.35L33.95 50.28H33.86L33.49 50H33.44H33.34C33.86 49.9 34.1 50 34.52 49C33.2 49.69 32.21 47.19 34.84 47.25C36.08 47.89 36.59 49.57 34.68 50.66H34.58H34.49H34.4H34.3M33 55.48C32.9942 55.4435 32.9942 55.4064 33 55.37L33.07 55.43L33 55.48ZM27.66 47.16C27.6577 47.1966 27.6577 47.2333 27.66 47.27C27.66 47.27 27.66 47.27 27.6 47.27V47.21H27.65M36.65 57.51C36.4253 57.3471 36.2658 57.1096 36.2 56.84H36.62C36.5992 57.0595 36.5992 57.2805 36.62 57.5M39.29 55.09C39.4169 54.8807 39.5304 54.6636 39.63 54.44H39.68C39.6 55.14 40.54 55.79 39.41 57.44C39.4685 56.6348 39.4282 55.8254 39.29 55.03M48.36 47.18V47.24C48.36 47.24 48.36 47.46 48.36 47.59L47.67 47.95C47.6596 47.877 47.6596 47.8029 47.67 47.73H47.72C47.7563 47.7372 47.7937 47.7372 47.83 47.73C47.94 47.73 47.89 47.78 48.25 47.45C48.3013 47.4032 48.3333 47.3391 48.34 47.27M50.8 38.8C50.91 38.89 51.24 39.28 51.64 39.8L51.42 39.72C51.196 39.4427 50.989 39.1522 50.8 38.85M49.37 39.85C49.4166 39.9125 49.4568 39.9795 49.49 40.05C49.4572 39.9859 49.4304 39.919 49.41 39.85M23.54 41.07C23.4469 41.0603 23.3531 41.0603 23.26 41.07C23.95 40.24 25.02 38.94 25.26 38.77C25.17 38.96 24.26 40.16 23.57 41.11M21.96 47.35H21.62C21.6074 47.5132 21.5388 47.667 21.4259 47.7855C21.3129 47.9039 21.1624 47.9797 21 48L20.89 47.94L20.8 47.86L20.72 47.76C20.6542 47.6303 20.6265 47.4847 20.64 47.34C20.6497 47.1942 20.7098 47.0563 20.81 46.95C20.7349 46.8782 20.6647 46.8013 20.6 46.72C20.5409 46.637 20.4874 46.5502 20.44 46.46C20.2158 46.007 20.166 45.4873 20.3 45C20.4619 44.6012 20.7382 44.2592 21.0941 44.0172C21.45 43.7752 21.8696 43.6439 22.3 43.64C22.38 43.48 22.3 43.42 23.06 43.15C23.06 43.29 23.45 43.33 23.14 44.08C23.3672 44.3506 23.5187 44.6765 23.579 45.0247C23.6393 45.3728 23.6063 45.7307 23.4833 46.062C23.3604 46.3932 23.1519 46.686 22.879 46.9105C22.6062 47.1349 22.2787 47.2831 21.93 47.34M37.2 21C37.7529 21.0326 38.3071 21.0326 38.86 21C39.837 21.8481 41.014 22.4332 42.28 22.7C41.4809 22.7519 40.6788 22.6639 39.91 22.44C39.91 22.94 41.02 23.52 41.73 23.67C41.1964 23.7387 40.6541 23.6628 40.16 23.45C40.392 23.8232 40.7449 24.1056 41.16 24.25C40.8385 24.5783 40.4459 24.8284 40.0124 24.981C39.579 25.1336 39.1163 25.1846 38.66 25.13C38.7905 25.2885 38.9586 25.4118 39.149 25.4886C39.3394 25.5655 39.546 25.5934 39.75 25.57C38.7773 26.9329 38.1744 28.5246 38 30.19C37.823 28.5347 37.2276 26.9517 36.27 25.59C36.4755 25.6142 36.6838 25.5867 36.8759 25.5098C37.0681 25.433 37.2379 25.3093 37.37 25.15C36.9151 25.2076 36.453 25.1581 36.0206 25.0053C35.5883 24.8525 35.1977 24.6007 34.88 24.27C35.292 24.1201 35.6434 23.839 35.88 23.47C35.3859 23.6828 34.8436 23.7587 34.31 23.69C35.02 23.54 36.1 22.96 36.13 22.46C35.3578 22.6845 34.5524 22.7725 33.75 22.72C35.0301 22.4566 36.2192 21.8637 37.2 21ZM47 49.34C46.9918 49.2836 46.9918 49.2263 47 49.17C46.9902 49.1903 46.9852 49.2125 46.9852 49.235C46.9852 49.2575 46.9902 49.2797 47 49.3M47 49.39C46.9869 49.4146 46.98 49.4421 46.98 49.47C46.98 49.4979 46.9869 49.5254 47 49.55C46.99 49.4803 46.99 49.4096 47 49.34V49.39ZM59.36 32.24C58.6472 31.9022 57.8521 31.7772 57.07 31.88C57.6499 31.7359 58.1789 31.4347 58.5988 31.0095C59.0187 30.5844 59.3132 30.0517 59.45 29.47C58.7475 29.2943 58.0125 29.2943 57.31 29.47C57.8011 29.2019 58.2148 28.8117 58.5108 28.3369C58.8069 27.8621 58.9754 27.319 59 26.76C58.1819 26.74 57.3703 26.9112 56.63 27.26C58.25 26.37 58.83 24.26 57.97 23.06C57.48 23.35 55.19 25.68 54.82 25.94C56.27 24 58.28 21.81 56 19.43C54.9424 21.5818 53.687 23.6306 52.25 25.55C52.1589 25.4245 52.0341 25.3274 51.89 25.27C51.5237 26.2628 50.8988 27.1396 50.08 27.81C50.0203 27.6469 49.9396 27.4922 49.84 27.35C44 30.92 49 37 44.06 34.67C44.2953 34.6309 44.5155 34.5283 44.6968 34.3733C44.8781 34.2182 45.0136 34.0166 45.0888 33.7902C45.1639 33.5638 45.1758 33.3212 45.1231 33.0885C45.0705 32.8559 44.9553 32.642 44.79 32.47C44.34 32.74 44.04 33.62 42.42 32.4C42.5932 32.4877 42.7874 32.5257 42.981 32.5097C43.1745 32.4937 43.3598 32.4243 43.5163 32.3093C43.6728 32.1942 43.7943 32.0381 43.8673 31.8581C43.9403 31.6782 43.962 31.4815 43.93 31.29C41.63 32.46 41.34 28.45 43.46 26.79C43.69 27.25 46.19 25.87 46.4 28.01C47.33 27.48 46.99 26.63 45.8 26.3C46.8 26.47 49.44 28.74 49.63 25.84C49.19 26.89 47.47 26.06 45.69 25.84C46.0867 25.5919 46.5557 25.4855 47.0206 25.5382C47.4855 25.5908 47.9189 25.7994 48.25 26.13C48.5031 25.9059 48.6777 25.6066 48.7481 25.276C48.8185 24.9453 48.781 24.6008 48.6411 24.2931C48.5012 23.9854 48.2663 23.7306 47.9709 23.5662C47.6756 23.4019 47.3352 23.3366 47 23.38C47.0074 23.3216 46.9996 23.2622 46.9772 23.2078C46.9548 23.1533 46.9186 23.1056 46.8723 23.0693C46.8259 23.033 46.7709 23.0094 46.7126 23.0007C46.6544 22.9921 46.5949 22.9987 46.54 23.02C46.5428 22.9726 46.5342 22.9252 46.5151 22.8817C46.496 22.8383 46.4668 22.8 46.43 22.77C48.3 22.94 49.94 21.14 49.02 18.61C49.5062 18.9057 50.0412 19.1123 50.6 19.22C51.28 20.41 49.35 21.85 50.82 23.58C50.8391 23.7349 50.8188 23.8921 50.7612 24.0372C50.7035 24.1822 50.6102 24.3104 50.49 24.41C51.12 24.26 52.11 23.87 51.15 22.1C51.31 23.17 52.77 21.49 52.86 23.1C54.86 21.49 51.48 22.03 52.27 20.91C52.91 20.01 53.42 19.13 51.13 18.64C50.62 16.84 46.45 16.64 47.79 19.96C48.17 20.75 48.59 22.11 46.26 22.55V22.32C46.61 21.69 47.48 19.91 45.62 19.58C45.51 19.52 45.62 19.58 45.21 19.58V19.74H45.09V19.52C45.09 19.44 45.35 19.38 45.09 18.89H45.23C45.1296 18.7926 45.0391 18.6854 44.96 18.57C45.0738 18.6474 45.1809 18.7344 45.28 18.83V17.83C45.1795 17.9271 45.0726 18.0173 44.96 18.1C45.0362 17.9824 45.1269 17.8749 45.23 17.78H44.23C44.3301 17.8776 44.4206 17.9848 44.5 18.1C44.3853 18.0159 44.2751 17.9258 44.17 17.83V18.83C44.2697 18.7281 44.3804 18.6375 44.5 18.56C44.4174 18.6727 44.3272 18.7796 44.23 18.88H44.37C44.37 18.98 44.11 19.03 44.37 19.51V19.73H44.24V19.57C44.06 19.52 44.24 19.57 43.84 19.57C42.98 19.97 42.08 20.38 43.19 22.31V22.46C42.0275 22.0187 40.9712 21.3372 40.09 20.46V19.81C40.79 18.89 41.99 15.95 39.3 15.56C39.2236 15.5067 39.1351 15.4733 39.0426 15.4628C38.9501 15.4523 38.8564 15.4651 38.77 15.5V15.75H38.49V15.44H38.34C38.34 15.35 38.95 15.16 38.44 14.38H38.66C38.4989 14.2285 38.3667 14.0489 38.27 13.85C38.468 13.9439 38.6475 14.0726 38.8 14.23V13C38.6546 13.161 38.4776 13.2904 38.28 13.38C38.3719 13.1808 38.5009 13.001 38.66 12.85H37.4C37.5591 13.001 37.6881 13.1808 37.78 13.38C37.5808 13.2881 37.401 13.1591 37.25 13V14.26C37.4063 14.1071 37.585 13.979 37.78 13.88C37.6906 14.0806 37.5613 14.2609 37.4 14.41H37.62C37.62 14.55 37.04 14.74 37.72 15.47H37.56V15.78H37.27V15.53C37.1836 15.4951 37.0899 15.4823 36.9974 15.4928C36.9049 15.5033 36.8164 15.5367 36.74 15.59C34.93 15.96 34.45 17.59 35.95 19.84V20.5C35.0846 21.3919 34.0281 22.0758 32.86 22.5V22.35C33.21 21.72 34.08 19.94 32.21 19.61C32.11 19.55 32.21 19.61 31.81 19.61V19.77H31.69V19.55C31.69 19.47 31.94 19.41 31.69 18.92H31.83C31.7329 18.8195 31.6427 18.7126 31.56 18.6C31.6775 18.6803 31.788 18.7707 31.89 18.87V17.87C31.7873 17.9685 31.6769 18.0588 31.56 18.14C31.6362 18.0224 31.7269 17.9149 31.83 17.82H30.83C30.9332 17.9147 31.024 18.0223 31.1 18.14C30.9831 18.0588 30.8727 17.9685 30.77 17.87V18.87L31.1 18.61C31.0209 18.7254 30.9305 18.8326 30.83 18.93H31C31 19.03 30.75 19.08 31 19.56V19.78H30.88V19.62C30.69 19.57 30.88 19.62 30.47 19.62C29.61 20.02 28.7 20.44 29.82 22.36V22.59C26.36 23.17 30.66 13.88 24.95 18.68C22.12 18.45 24.69 21.76 23.37 21.56C22.92 21.5 22.14 22.18 23.22 23.14C22.94 22.42 23.82 22.81 24.93 22.14C24.78 22.85 23.72 23.79 25.59 24.45C25.4744 24.3467 25.3845 24.2179 25.3272 24.0739C25.2699 23.9298 25.2469 23.7744 25.26 23.62C26.35 22.32 25.39 21.23 25.48 19.26C26.02 19.1315 26.5341 18.9117 27 18.61C27.31 20.61 25.47 22.26 29.59 22.77C29.5532 22.8 29.524 22.8383 29.5049 22.8817C29.4858 22.9252 29.4772 22.9726 29.48 23.02C29.4251 22.9987 29.3656 22.9921 29.3073 23.0007C29.2491 23.0094 29.1941 23.033 29.1477 23.0693C29.1014 23.1056 29.0652 23.1533 29.0428 23.2078C29.0204 23.2622 29.0126 23.3216 29.02 23.38C28.3 23.43 26.34 24.38 27.8 26.1C28.1311 25.7694 28.5645 25.5608 29.0294 25.5082C29.4943 25.4555 29.9633 25.5619 30.36 25.81C29.36 25.36 27.84 27.5 26.42 25.81C26.36 27.08 27.69 27.97 30.25 26.27C29.06 26.6 28.72 27.45 29.65 27.98C29.82 26.8 30.06 26.81 32.58 26.76C33.53 27.4 35.73 31.9 32.12 31.26C32.0879 31.4515 32.1096 31.6482 32.1827 31.8281C32.2557 32.0081 32.3772 32.1642 32.5337 32.2793C32.6902 32.3943 32.8755 32.4637 33.069 32.4797C33.2626 32.4957 33.4567 32.4577 33.63 32.37C33.54 32.45 32.23 33.65 31.26 32.44C31.0947 32.612 30.9795 32.8259 30.9269 33.0585C30.8742 33.2912 30.8861 33.5338 30.9612 33.7602C31.0363 33.9866 31.1719 34.1882 31.3532 34.3433C31.5345 34.4983 31.7547 34.6009 31.99 34.64C28.38 36.36 29.43 34.13 29.61 31C29.14 30.32 27.34 28.74 26.19 27.32C26.0904 27.4622 26.0097 27.6169 25.95 27.78C25.1283 27.1124 24.5028 26.2346 24.14 25.24C23.9975 25.3001 23.8733 25.3966 23.78 25.52C22.343 23.6006 21.0876 21.5518 20.03 19.4C18.03 21.11 19.15 23.4 21.25 25.91C20.89 25.65 18.6 23.32 18.1 23.03C17.25 24.24 17.83 26.34 19.44 27.23C18.7035 26.8803 17.895 26.709 17.08 26.73C17.0947 27.2929 17.2555 27.8423 17.5465 28.3244C17.8375 28.8065 18.2488 29.2047 18.74 29.48C18.0375 29.3043 17.3025 29.3043 16.6 29.48C16.739 30.0628 17.0369 30.5957 17.4606 31.0194C17.8843 31.4431 18.4172 31.741 19 31.88C18.2212 31.778 17.4295 31.903 16.72 32.24C16.8777 32.7934 17.2044 33.2837 17.6544 33.6423C18.1045 34.0009 18.6553 34.2099 19.23 34.24C18.4395 34.2931 17.7007 34.6517 17.17 35.24C17.4275 35.5909 17.7675 35.8731 18.1599 36.0614C18.5523 36.2498 18.9851 36.3386 19.42 36.32C19.107 36.4252 18.8193 36.5942 18.5749 36.8162C18.3305 37.0383 18.1347 37.3085 18 37.61C18.61 38.1 19.38 38.41 21.15 37.78C19.15 38.62 19.52 39.03 19.21 39.9C19.99 40.43 21.54 40.17 23.09 38.69C22.77 39.32 20.3 39.94 21.03 41.82H21.32C21.293 41.8485 21.2725 41.8827 21.26 41.92C20.85 41.82 19.85 41.76 19.26 43.17C19.11 43.07 18.74 43.17 18.18 44C18.1771 44.0533 18.1771 44.1067 18.18 44.16C18.18 44.22 18.18 44.16 18.18 44.32V44.46L18.25 44.6L18.33 44.71L18.44 44.81C18.3433 44.9533 18.2722 45.1123 18.23 45.28C18.2317 45.2999 18.2317 45.32 18.23 45.34C18.219 45.4564 18.219 45.5736 18.23 45.69C18.2336 45.7132 18.2336 45.7368 18.23 45.76C18.2211 45.8028 18.2211 45.8471 18.23 45.89C18.23 45.89 18.23 45.97 18.23 46.09C18.232 46.1133 18.232 46.1367 18.23 46.16C18.23 46.21 18.28 46.28 18.35 46.4C18.3518 46.4199 18.3518 46.44 18.35 46.46V46.52L18.44 46.61C18.5176 46.6906 18.6049 46.7611 18.7 46.82H18.76C18.6978 46.9542 18.6736 47.1029 18.69 47.25V47.31C18.692 47.3333 18.692 47.3567 18.69 47.38V47.44C18.7342 47.5223 18.7954 47.5943 18.8696 47.6512C18.9437 47.708 19.029 47.7485 19.12 47.77C19.0592 47.8949 19.0252 48.0311 19.02 48.17C19.02 48.17 19.02 48.17 19.02 48.32C19.0282 48.3982 19.0449 48.4754 19.07 48.55C19.07 48.55 19.07 48.55 19.07 48.63C19.1696 48.811 19.3285 48.9523 19.52 49.03H19.57H19.66H19.75H20.56H20.61H21H21.08C21.08 49.03 21.08 49.03 21.23 48.91C21.3037 48.8463 21.3677 48.7722 21.42 48.69H21.6H21.71H21.78C21.78 48.69 21.78 48.69 21.91 48.69C22.0203 48.6844 22.1272 48.6499 22.22 48.59H22.27H22.32H22.37C22.3988 48.5514 22.4255 48.5114 22.45 48.47C22.5132 48.4768 22.5768 48.4768 22.64 48.47H22.72H22.85H22.98C23.0957 48.4599 23.2098 48.4364 23.32 48.4H23.39L24 49H24.37L25.08 47.5C25.24 47.6 25.08 47.5 25.53 47.71C25.5197 47.7561 25.5197 47.8039 25.53 47.85L27.7 48.85C27.6953 48.8798 27.6953 48.9102 27.7 48.94V49C27.7 49 27.7 49 27.7 49.06C27.6833 49.0889 27.6745 49.1216 27.6745 49.155C27.6745 49.1883 27.6833 49.2211 27.7 49.25C27.6947 49.2591 27.692 49.2694 27.692 49.28C27.692 49.2905 27.6947 49.3009 27.7 49.31C27.81 49.51 27.7 49.71 28.28 49.7C28.38 49.62 28.4 49.7 28.53 49.14C28.6 49.32 28.48 49.23 28.45 49.82C28.4762 49.8592 28.5101 49.8927 28.5497 49.9185C28.5892 49.9442 28.6335 49.9618 28.68 49.97C28.68 49.97 28.74 49.97 28.92 49.97C28.98 49.97 29.09 49.97 29.07 49.81C29.07 49.81 29.02 49.97 29.23 50.14C29.23 50.14 29.29 50.14 29.5 50.14H29.55C29.65 50.14 29.61 50.2 29.79 50.03C29.97 49.86 29.79 50.03 29.85 49.68L33.91 51.57C33.55 51.45 30.6 54.62 31.21 51.94C30.78 52 30 52.54 30 53.7C29 53.85 27.74 56.87 28.65 56.97C28.7721 56.3251 29.1282 55.7481 29.65 55.35C29.65 55.93 29.51 55.9 30.21 56.93C30.15 57.17 27.94 57.68 27.93 58.39C28.26 58.78 29.37 57.79 30.27 57.47V57.62C30.58 57.52 30.47 57.62 30.91 57.18L31.38 56.94C31.4993 57.2478 31.7076 57.513 31.9783 57.7018C32.2491 57.8906 32.57 57.9944 32.9 58C32.4957 58.4713 31.9463 58.7948 31.338 58.9197C30.7298 59.0446 30.0973 58.9638 29.54 58.69C29.54 59.83 33.42 60.69 34.24 57.98C34.88 58.26 34.75 59.26 36.92 58.46C37.1624 58.9871 37.5339 59.4445 38 59.79C38.482 59.4679 38.8688 59.0224 39.12 58.5C39.43 58.66 41.42 59.37 42.04 57.5C42.59 57.84 44.14 58.58 44.76 56.74L45.13 56.91C45.29 57.02 44.92 57.2 45.83 57.55C45.7729 57.4424 45.7453 57.3217 45.75 57.2L48.64 58.55C48.77 58.55 48.64 58.55 49.14 58.55H49.27C49.27 58.55 49.27 58.55 49.33 58.55H49.39C49.39 58.55 49.39 58.55 49.49 58.48L49.58 58.38L49.65 58.27C49.6457 58.2502 49.6457 58.2297 49.65 58.21C49.6485 58.19 49.6485 58.1699 49.65 58.15C49.6462 58.1335 49.6462 58.1164 49.65 58.1C49.65 58.1 49.65 58.02 49.65 57.91C49.65 57.91 49.65 57.91 49.65 57.79C49.6386 57.7492 49.618 57.7116 49.59 57.68C49.5631 57.6208 49.5219 57.5692 49.47 57.53C49.47 57.53 49.47 57.53 49.36 57.46L49.13 57.35L48.42 57L48.73 56.34L50.2 57L51.83 53.54V53.38L51.36 53.16C52.56 52.89 53.65 49.24 51.65 48.77C51.3347 48.8492 51.0015 48.8138 50.71 48.67C50.71 49.01 51.36 49.59 51.36 49.59C51.49 49.79 51.52 50.09 50.51 49.4C53.67 52.78 48.03 52.46 46.84 50.27C46.94 50.18 46.95 50.19 46.99 49.94C46.99 50.06 47.09 50.08 47.15 50.1C47.27 50.1 47.15 50.1 47.39 50.1C47.63 50.1 47.39 50.1 47.65 49.92C47.71 49.79 47.6 49.81 47.56 49.27V49.13C47.56 49.44 47.42 49.29 47.79 49.79C47.79 49.79 48.38 49.88 48.35 49.34C48.3667 49.3111 48.3755 49.2783 48.3755 49.245C48.3755 49.2116 48.3667 49.1789 48.35 49.15C48.35 49.15 48.35 49.15 48.35 48.94C48.5064 48.8002 48.6148 48.6148 48.66 48.41H48.74C48.7861 48.42 48.8339 48.42 48.88 48.41C48.88 48.41 48.88 48.41 48.94 48.34L49.12 48.25C49.1717 48.266 49.2277 48.2615 49.2761 48.2372C49.3246 48.213 49.3618 48.171 49.38 48.12L53.49 46.06L53.55 46.17L54.78 45.53L54.73 45.45L55.23 45.2C55.0704 44.9753 54.9425 44.7296 54.85 44.47L54.36 44.72L54.31 44.62L53.06 45L53.13 45.12L49.13 47.12C49.1209 47.1147 49.1105 47.1119 49.1 47.1119C49.0895 47.1119 49.0791 47.1147 49.07 47.12C49.07 47.12 49.07 47.12 49.07 47.06C49.07 46.96 49.07 46.99 49 46.77C49.002 46.7433 49.002 46.7166 49 46.69C49 46.54 49 46.61 48.57 46.43L48.38 46.3C48.38 46.3 48.38 46.3 48.32 46.24C48.26 46.18 48.32 46.24 48.15 46.24H48.07C48.01 46.24 48.01 46.24 48 46.34C47.99 46.44 47.94 46.34 47.91 46.41C47.74 45.65 47.66 45.04 46.14 44.54C46.51 43.54 48.56 43.45 48.74 45.6C48.79 45.29 48.91 43.6 49.44 45.86C49.4976 45.5411 49.668 45.2536 49.92 45.05C49.92 45.05 50.25 44.61 49.81 43.75C49.9222 43.7734 50.0301 43.8138 50.13 43.87C50.37 43.42 50.9 43.26 50.82 42.7C51.4187 43.0002 52.0716 43.177 52.74 43.22L52.65 43.13C52.6545 43.1035 52.6545 43.0765 52.65 43.05C52.7021 43.1145 52.7626 43.1717 52.83 43.22C52.98 43.22 52.2 43.54 52.9 43.99C53.02 43.92 52.48 44.43 53.1 44.51C53.1 44.51 52.98 44.75 53.1 44.9L54.1 44.38C53.94 44.3 52.26 43.26 54.22 42.31C54.3418 42.1758 54.4217 42.009 54.45 41.83C54.6205 41.7875 54.7946 41.7607 54.97 41.75C55.36 40.75 54.24 39.45 52.91 38.62C53.91 39.14 55.15 40.93 56.79 39.83C56.48 38.96 56.87 38.55 54.85 37.71C56.62 38.34 57.39 38.03 58 37.54C57.8742 37.2379 57.6877 36.9648 57.452 36.7378C57.2163 36.5107 56.9366 36.3345 56.63 36.22C57.065 36.2395 57.4981 36.1511 57.8907 35.9626C58.2833 35.7742 58.6231 35.4916 58.88 35.14C58.3493 34.5517 57.6105 34.1931 56.82 34.14C57.3947 34.1099 57.9455 33.9009 58.3956 33.5423C58.8456 33.1837 59.1723 32.6934 59.33 32.14" fill="#808D9C"/>
<path d="M56.17 42.32C55.9723 42.4189 55.7985 42.5596 55.6603 42.7322C55.5222 42.9049 55.4232 43.1054 55.37 43.32L55.27 43.39L55.22 43.53C55.1852 43.5151 55.1478 43.5074 55.11 43.5074C55.0722 43.5074 55.0348 43.5151 55 43.53C54.71 43.66 54.87 43.99 54.87 43.99C54.87 43.99 55 44.35 55.1 44.56C55.2036 44.7577 55.3205 44.9482 55.45 45.13C55.45 45.13 55.68 45.38 55.89 45.27C55.9349 45.2452 55.9724 45.2091 55.9987 45.1652C56.0251 45.1213 56.0393 45.0712 56.04 45.02H56.15H56.35C56.587 45.1036 56.8411 45.1271 57.0895 45.0884C57.3379 45.0498 57.5728 44.9501 57.7732 44.7984C57.9736 44.6466 58.1332 44.4476 58.2378 44.219C58.3424 43.9904 58.3887 43.7395 58.3725 43.4887C58.3563 43.2378 58.2782 42.9949 58.1451 42.7817C58.012 42.5685 57.8281 42.3916 57.6098 42.2668C57.3916 42.1421 57.1458 42.0735 56.8946 42.067C56.6433 42.0606 56.3943 42.1166 56.17 42.23" fill="#808D9C"/>
<path d="M53 45C52.83 44.73 52.94 44.62 52.94 44.62C52.8895 44.6173 52.8408 44.5999 52.8 44.57L52.25 44.85C52.15 44.91 51.96 45.03 51.93 45.16C52.2945 45.23 52.672 45.1736 53 45Z" fill="#808D9C"/>
<path d="M52.77 44.55C52.66 44.46 52.63 44.39 52.65 44.29C52.67 44.19 52.65 44.11 52.77 44.06H52.67C52.67 44.06 52.37 44.06 52.32 44.06C51.9856 44.1131 51.6714 44.2547 51.41 44.47C51.72 44.79 52.41 44.69 52.77 44.59" fill="#808D9C"/>
<path d="M52.63 44C52.5796 43.9627 52.5381 43.9147 52.5087 43.8593C52.4793 43.8039 52.4627 43.7427 52.46 43.68C52.4544 43.6177 52.4642 43.555 52.4886 43.4975C52.5131 43.4399 52.5513 43.3892 52.6 43.35C51.9935 43.2718 51.3773 43.3195 50.79 43.49C50.9588 43.6602 51.1623 43.7921 51.3866 43.8766C51.6109 43.9612 51.8508 43.9964 52.09 43.98H52.63" fill="#808D9C"/>
<path d="M56.4 46.61C56.04 46.61 55.82 46.9 55.47 46.9C55.3276 46.9029 55.1868 46.8695 55.0609 46.803C54.9349 46.7366 54.828 46.6392 54.75 46.52C54.5841 46.1955 54.5483 45.8199 54.65 45.47L53.65 46C53.65 46.21 53.95 46.26 53.95 46.26C53.9174 46.3143 53.9002 46.3766 53.9002 46.44C53.9002 46.5034 53.9174 46.5656 53.95 46.62C54.05 46.79 54.29 46.72 54.29 46.72C54.29 46.72 54.29 47.08 54.43 47.22C54.495 47.2587 54.5693 47.2792 54.645 47.2792C54.7207 47.2792 54.795 47.2587 54.86 47.22C54.8568 47.315 54.8739 47.4096 54.9101 47.4976C54.9463 47.5855 55.0008 47.6647 55.07 47.73C55.1346 47.7698 55.2091 47.7909 55.285 47.7909C55.3609 47.7909 55.4354 47.7698 55.5 47.73C55.5 47.73 55.58 47.99 55.71 48.05C55.7875 48.0667 55.8683 48.0594 55.9415 48.029C56.0148 47.9986 56.077 47.9466 56.12 47.88C56.1438 47.987 56.1888 48.0881 56.2523 48.1774C56.3159 48.2668 56.3967 48.3424 56.49 48.4C56.5756 48.4325 56.6681 48.4432 56.7589 48.431C56.8497 48.4187 56.936 48.384 57.01 48.33C57.29 48.12 57.12 48.44 57.09 48.52C56.97 48.92 56.83 49.3 56.7 49.69C56.6332 49.8376 56.5986 49.9979 56.5986 50.16C56.5986 50.3221 56.6332 50.4823 56.7 50.63C56.7 50.63 56.86 50.81 56.99 50.78C57.1 50.34 57.25 49.91 57.37 49.47C57.5455 48.9812 57.6466 48.4688 57.67 47.95C57.6715 47.5912 57.5595 47.2412 57.35 46.95C57.2518 46.8151 57.1194 46.7088 56.9665 46.6421C56.8136 46.5753 56.6457 46.5504 56.48 46.57" fill="#808D9C"/>
<path d="M53.8 46.31C53.8 46.31 53.66 46.31 53.53 46.04C53.1959 46.202 52.9276 46.4738 52.77 46.81C52.9215 46.8353 53.0771 46.807 53.21 46.73C53.3985 46.6472 53.5822 46.5538 53.76 46.45C53.7532 46.4036 53.7532 46.3564 53.76 46.31" fill="#808D9C"/>
<path d="M54.14 46.9C54.1349 46.8669 54.1349 46.8331 54.14 46.8C54.0522 46.8283 53.9578 46.8283 53.87 46.8C53.8256 46.7757 53.7889 46.7393 53.7641 46.6951C53.7393 46.6509 53.7275 46.6006 53.73 46.55C53.42 46.8 52.95 47.27 53.03 47.71C53.3602 47.6315 53.6617 47.4617 53.9 47.22C53.9756 47.131 54.0457 47.0375 54.11 46.94" fill="#808D9C"/>
<path d="M54.31 47.3C54.2153 47.2111 54.1581 47.0895 54.15 46.96C54.15 46.96 53.88 47.38 53.85 47.41C53.695 47.5892 53.5814 47.8004 53.5175 48.0286C53.4535 48.2568 53.4407 48.4963 53.48 48.73C53.9643 48.3603 54.3662 47.8937 54.66 47.36C54.6013 47.3801 54.5385 47.3852 54.4773 47.3747C54.4162 47.3642 54.3586 47.3385 54.31 47.3Z" fill="#808D9C"/>
<path d="M55.19 47.9C55.1292 47.9009 55.069 47.8867 55.015 47.8588C54.9609 47.8309 54.9145 47.7901 54.88 47.74C54.8306 47.6901 54.7919 47.6306 54.7661 47.5653C54.7403 47.5 54.728 47.4302 54.73 47.36C54.73 47.36 54.57 47.62 54.56 47.62C54.1844 48.1327 53.9877 48.7546 54 49.39C54.1952 49.2672 54.3678 49.1116 54.51 48.93C54.57 48.93 55.17 47.93 55.17 47.93" fill="#808D9C"/>
<path d="M55.37 48.86L55.78 48.17C55.7255 48.1756 55.6704 48.1676 55.6198 48.1467C55.5692 48.1257 55.5246 48.0925 55.49 48.05C55.4445 47.9938 55.4105 47.9293 55.39 47.86C55.3504 47.8678 55.3096 47.8678 55.27 47.86L55.01 48.28C54.6736 48.8954 54.4821 49.5794 54.45 50.28C54.573 50.1688 54.6836 50.0448 54.78 49.91C54.95 49.66 55.37 48.91 55.37 48.91" fill="#808D9C"/>
<path d="M56.25 48.41C56.1346 48.2957 56.0488 48.1549 56 48C55.9626 48.0536 55.9105 48.0952 55.85 48.12C55.78 48.22 55.36 49.01 55.36 49.01C55.03 49.62 54.55 50.94 54.77 51.3C55.1487 50.8552 55.4465 50.3476 55.65 49.8L56.25 48.41Z" fill="#808D9C"/>
<path d="M56.4 50.09L57.03 48.39C56.9374 48.4768 56.8194 48.5315 56.6933 48.5459C56.5672 48.5603 56.4398 48.5337 56.33 48.47C56.33 48.47 55.92 49.47 55.69 50.04C55.3916 50.697 55.2808 51.4238 55.37 52.14C55.5168 52.0363 55.6368 51.8992 55.72 51.74C55.7885 51.6244 55.8487 51.5041 55.9 51.38L56.4 50.09Z" fill="#808D9C"/>
<path d="M56.43 50.31C56.1423 50.9488 55.934 51.6205 55.81 52.31C55.8241 52.732 55.9121 53.1484 56.07 53.54L56.87 50.95C56.87 50.95 56.48 50.95 56.43 50.35" fill="#808D9C"/>
<path d="M38 33.19H32.7V44.19C32.7 45.55 33.26 46.19 34.43 46.19H36.18C36.6006 46.2136 37.0029 46.3693 37.3298 46.6351C37.6566 46.9009 37.8911 47.263 38 47.67C38.0845 47.2516 38.3067 46.8736 38.6312 46.5963C38.9556 46.319 39.3636 46.1583 39.79 46.14H41.55C42.71 46.14 43.28 45.5 43.28 44.14V33.14L38 33.19Z" fill="white"/>
<path d="M38 33.19H32.7V44.19C32.7 45.55 33.26 46.19 34.43 46.19H36.18C36.6006 46.2136 37.0029 46.3693 37.3298 46.6351C37.6566 46.9009 37.8911 47.263 38 47.67C38.0845 47.2516 38.3067 46.8736 38.6312 46.5963C38.9556 46.319 39.3636 46.1583 39.79 46.14H41.55C42.71 46.14 43.28 45.5 43.28 44.14V33.14L38 33.19Z" stroke="white" stroke-width="0.03" stroke-miterlimit="10"/>
<path d="M35.84 43.72H35.55C35.55 43.58 35.44 43.53 35.43 43.38C35.43 42.85 35.22 43.06 35.73 42.07C36.21 41.73 35.87 41.71 37.02 41.07C37.16 41.17 37.13 41.49 37.02 41.61C37.046 41.6644 37.0661 41.7214 37.08 41.78C37.1644 41.8248 37.2556 41.8552 37.35 41.87C37.57 42.06 37.51 41.97 38.13 42.97C38.13 42.97 38.13 42.9 38.13 42.86L38.24 42.96H38.15C38.15 43.03 38.15 43.13 38.21 43.13C38.27 43.13 37.96 43.13 37.9 43.22C37.8142 43.2264 37.7331 43.2616 37.67 43.32C37.58 43.32 37.54 43.32 37.47 43.39C37.93 43.2 36.12 41.06 35.81 43.6C35.81 43.6 35.81 43.6 35.71 43.6C35.61 43.6 35.84 43.66 35.84 43.74M38.4 42.61L37.94 40.96C38.006 40.8365 38.0436 40.6999 38.05 40.56C38.16 40.56 38.28 40.56 38.4 40.56C38.4801 40.6785 38.5252 40.8171 38.53 40.96C38.62 40.96 38.42 41.11 38.53 41.38C38.71 41.38 38.58 41.38 38.9 41.3C39.17 41.3 39.05 41.3 39.4 41.74C39.4949 42.0342 39.6368 42.3111 39.82 42.56C39.64 42.56 39.82 42.56 39.68 42.81C39.68 42.81 39.68 42.65 39.84 42.7C39.84 42.7 39.84 42.79 39.84 42.83C39.84 42.87 39.84 42.83 39.72 43.04C39.72 43.04 39.72 42.99 39.72 42.96C39.72 42.93 39.72 42.96 39.86 42.96C39.8716 43.0195 39.8716 43.0806 39.86 43.14C39.86 43.14 39.77 43.19 39.75 43.24C39.7057 43.2286 39.6594 43.2272 39.6144 43.2359C39.5694 43.2445 39.527 43.263 39.49 43.29C39.49 43.29 39.49 43.29 39.62 43.29C39.75 43.29 39.62 43.34 39.62 43.39C39.62 43.39 39.52 43.39 39.48 43.39C39.44 43.39 39.25 43.19 39.07 43.21C38.89 43.23 39.07 43.21 38.86 43.21C38.93 43.21 38.86 43.21 39.02 43.21C39.18 43.21 39.12 43.12 39.2 43.11C39.2072 43.1362 39.2072 43.1638 39.2 43.19C39.2 43.29 39.49 43.06 39.13 42.95C38.9314 43.034 38.7513 43.1563 38.6 43.31C38.6 43.23 38.67 43.13 38.6 43.06C38.72 43.06 38.72 42.86 38.87 42.84C39.02 42.82 38.87 42.92 38.87 42.94C39.01 42.94 38.87 42.94 38.96 42.69C38.9 42.69 38.96 42.64 38.76 42.69C38.56 42.74 38.66 42.62 38.52 42.94C38.47 42.94 38.62 42.83 38.43 42.63C38.43 42.63 38.35 42.63 38.3 42.68M35.97 34.35C35.87 34.51 35.91 34.35 36.03 34.86C35.96 34.99 35.85 34.94 35.89 35.37C35.65 35.5 34.33 35.27 34.55 36.13C34.55 36.13 34.15 36.55 34.55 36.78C34.55 36.91 34.39 36.97 34.65 37.16C34.6708 37.1975 34.7012 37.2288 34.7381 37.2506C34.775 37.2723 34.8171 37.2838 34.86 37.2838C34.9029 37.2838 34.945 37.2723 34.9819 37.2506C35.0188 37.2288 35.0492 37.1975 35.07 37.16C35.38 37.02 35.27 37.98 35.72 37.41C35.8319 37.4353 35.9481 37.4353 36.06 37.41L36.19 37.5C36.31 37.41 36.19 37.4 36.53 37.5C36.5569 37.4648 36.5918 37.4364 36.6318 37.4173C36.6717 37.3982 36.7157 37.3888 36.76 37.39L36.86 37.76H36.78C36.78 38.07 36.96 38.22 36.99 38.51C36.5439 38.5006 36.1008 38.5858 35.69 38.76C35.33 38.08 33.86 38.06 33.95 39.76C33.9301 39.7791 33.9152 39.8027 33.9065 39.8288C33.8978 39.855 33.8956 39.8828 33.9 39.91C33.9638 39.8883 34.0244 39.8581 34.08 39.82C34.0385 40.1152 34.0385 40.4148 34.08 40.71C34.211 40.6029 34.3025 40.4551 34.34 40.29C34.393 40.4593 34.393 40.6407 34.34 40.81C34.41 40.61 34.77 40.71 34.93 40.1C34.93 40.3 35 40.54 34.87 40.66C34.915 40.6417 34.9558 40.6145 34.99 40.58C35.61 41.02 34.59 38.35 35.6 39.03C35.2 39.62 36.3 40.89 35.32 41.97C35.2877 42.4265 35.1245 42.8639 34.85 43.23C34.85 43.23 34.85 43.23 34.9 43.23C34.9 43.23 34.9 43.23 34.95 43.23C35 43.23 34.95 43.23 34.9 43.54C34.56 43.8 35.05 42.54 34.11 42.54C34.83 42.7 33.99 44.84 36.05 44.36V44.49C35.9718 44.5636 35.8801 44.6213 35.78 44.66C36.48 44.5 38.01 45.99 39.07 44.89C39.07 44.73 39.51 45.05 39.4 44.45C39.47 44.45 39.4 44.34 39.69 44.32H39.76C39.76 44.32 39.84 44.32 39.99 44.32C40.14 44.32 39.99 44.46 40.44 44.54C40.4791 44.4905 40.5126 44.4369 40.54 44.38C40.93 44.22 41.7 44.56 41.75 43.8C41.7169 43.8589 41.6802 43.9157 41.64 43.97C41.64 43.97 41.64 43.97 41.73 43.88C41.73 43.96 41.65 44.05 41.61 44.06C41.57 44.07 41.73 43.8 41.61 43.67C41.616 43.743 41.599 43.816 41.5613 43.8788C41.5236 43.9416 41.4672 43.991 41.4 44.02C41.4 44.02 41.45 43.82 41.4 43.78C41.4012 43.8088 41.3955 43.8374 41.3833 43.8635C41.3711 43.8896 41.3528 43.9124 41.33 43.93C41.33 43.93 41.33 43.82 41.33 43.81C41.3208 43.8576 41.2993 43.902 41.2677 43.9388C41.2362 43.9756 41.1956 44.0036 41.15 44.02C41.15 44.02 41.15 44.02 41.15 43.93C41.15 43.84 41.15 43.99 41.06 43.99C40.97 43.99 41.06 43.9 41.01 43.88C40.96 43.86 41.01 43.95 40.95 43.97C40.89 43.99 40.95 43.89 40.9 43.87C40.85 43.85 40.9 43.87 40.9 43.93C40.8771 43.8375 40.8326 43.7518 40.77 43.68C40.84 43.68 40.77 43.58 40.84 43.55C40.91 43.52 40.84 43.55 40.93 43.55C41.02 43.55 40.93 43.48 40.93 43.46C40.93 43.44 40.93 43.46 40.99 43.46C41.05 43.46 40.99 43.4 40.99 43.37C40.99 43.34 41.04 43.37 41.07 43.31C41.1016 43.3207 41.1301 43.339 41.1528 43.3635C41.1755 43.3879 41.1917 43.4177 41.2 43.45C41.2248 43.3617 41.2248 43.2683 41.2 43.18C41.2 43.18 41.2 43.18 41.27 43.18C41.34 43.18 41.35 43.32 41.34 43.36C41.33 43.4 41.34 43.22 41.34 43.15C41.34 43.08 41.4 43.24 41.44 43.29C41.44 42.96 41.05 43.05 40.56 43.44C40.56 43.35 40.42 43.31 40.37 43.21C40.4085 43.1451 40.4355 43.0741 40.45 43C40.45 43 40.35 43 40.33 42.91C40.3395 42.8773 40.3395 42.8427 40.33 42.81C40.33 42.81 40.24 42.81 40.2 42.81C40.0903 42.1323 39.9299 41.4637 39.72 40.81C39.72 40.94 39.72 40.81 39.72 40.81L39.96 40.91C40.13 40.96 40.65 40.29 41.35 40.15C41.49 40.31 41.19 40.55 41.04 41.03C40.98 41.03 41.04 41.13 40.98 41.19C40.7 41.19 40.73 40.89 40.6 41.61C40.88 41.61 40.6 41.61 41.16 41.51C41.59 41.21 41.61 40.85 41.82 39.82C41.41 39.33 41.75 39.53 40.33 39.82C40.47 39.48 40.27 39.6 40.07 38.37C40.21 38.44 40.21 38.48 40.48 38.18C40.43 38.18 40.6 38.45 40.8 38.26C40.8 38.26 40.8 38.26 40.86 38.26C40.92 38.26 40.86 38.26 41 38.26C41.37 38.12 41.49 38.06 41.14 36.81C41.14 36.81 41.21 36.81 41.2 36.81H41.37C41.31 36.69 41.37 36.52 41.29 36.42L41.41 36.3C41.3157 36.257 41.2137 36.2332 41.11 36.23C41.11 36.23 41.11 36.18 40.85 36.14C40.85 36.07 40.96 36 41.01 35.92C40.9003 35.9087 40.7897 35.9087 40.68 35.92C40.68 35.92 40.68 35.92 40.42 35.86C40.16 35.8 40.18 35.61 39.42 35.86C39.4642 35.8578 39.5081 35.8678 39.5469 35.889C39.5857 35.9102 39.6179 35.9417 39.64 35.98C39.34 35.98 39.44 35.84 38.96 36.14C38.9189 36.1535 38.8819 36.177 38.8522 36.2085C38.8225 36.2399 38.8011 36.2782 38.79 36.32H38.91C38.85 36.4 38.51 36.32 38.47 36.49C38.61 36.49 38.55 36.49 38.79 36.49C38.61 36.56 38.79 36.49 38.39 36.84C38.3678 36.6882 38.3089 36.5442 38.2182 36.4204C38.1276 36.2966 38.008 36.1969 37.87 36.13C37.87 36.13 37.81 36.13 37.87 35.93C37.93 35.93 37.97 35.99 38.08 35.87C38.6 36.25 38.72 34.35 37.54 35.01C37.98 34.52 39.09 35.65 38.09 35.86L38.17 35.79C38.17 35.79 38.17 35.62 38.32 35.59C38.3254 35.5301 38.3254 35.4699 38.32 35.41C38.3325 35.3834 38.339 35.3544 38.339 35.325C38.339 35.2956 38.3325 35.2666 38.32 35.24C38.32 35.29 38.32 35.37 38.26 35.4C38.2 35.43 38.26 35.24 38.26 35.21C38.2801 35.2615 38.2801 35.3186 38.26 35.37C38.26 35.37 38.26 35.32 38.26 35.28C38.26 35.24 38.26 35.33 38.26 35.35C38.26 35.37 38.2 35.28 38.14 35.28C37.91 35.28 37.74 35.58 37.69 35.78C37.69 35.78 37.49 35.78 37.57 35.57C37.49 35.66 37.35 35.69 37.57 35.35C37.46 35.35 37.41 35.51 37.35 35.61C37.35 35.53 37.19 35.45 37.48 35.25C37.38 35.25 37.48 35.25 37.28 35.37C37.17 35.27 37.34 35.09 37.75 34.96C37.75 34.96 37.75 34.96 37.52 35.04C37.39 35.04 37 35.49 37.4 35.62C37.4 35.75 37.53 35.62 37.35 35.87C37.035 35.6237 36.6697 35.4496 36.28 35.36V35.26C36.33 35.15 36.37 35.16 36.18 34.95C36.18 34.95 36.18 34.95 36.04 34.95C35.9 34.95 36.29 34.64 36.07 34.26L35.97 34.35Z" fill="#808D9C"/>
<path d="M51.79 49.2C51.66 49.2 51.63 49.48 51.87 49.37C51.87 49.29 51.94 49.29 51.79 49.2ZM51.79 49.49C51.79 49.49 51.39 49.24 51.79 49.1C51.8 49 52.19 49.4 51.79 49.49ZM49.27 44.38C49.38 44.48 49.38 44.38 49.27 44.38C49.16 44.28 49.14 44.79 49.27 44.38ZM49.27 44.68C49.08 44.79 48.99 43.97 49.47 44.47C49.47 44.58 49.48 44.48 49.27 44.68ZM56.84 50.86L56 53.47C55.845 52.9372 55.7979 52.3789 55.8614 51.8277C55.925 51.2765 56.0979 50.7435 56.37 50.26C56.42 50.9 56.81 50.86 56.81 50.86M55.81 51.34C55.6966 51.6374 55.5111 51.902 55.27 52.11C55.07 51.33 55.61 49.84 56.27 48.42C56.3827 48.4817 56.5121 48.5062 56.6396 48.49C56.7671 48.4739 56.8862 48.4179 56.98 48.33C56.78 48.93 56.31 50.21 55.86 51.34H55.81ZM55.58 49.8C55.3724 50.3477 55.0713 50.8553 54.69 51.3C54.7268 50.1455 55.1062 49.0281 55.78 48.09C55.8213 48.0944 55.863 48.0885 55.9014 48.0728C55.9398 48.0571 55.9737 48.0321 56 48C56.0569 48.1369 56.1382 48.2622 56.24 48.37L55.58 49.8ZM54.68 49.85C54.5788 49.9809 54.4649 50.1015 54.34 50.21C54.3923 49.3554 54.6795 48.5318 55.17 47.83C55.2096 47.8378 55.2504 47.8378 55.29 47.83C55.29 47.83 55.24 48.08 55.69 48.14C55.41 48.6 55.38 48.67 54.69 49.88M54.43 48.88C54.2878 49.0616 54.1153 49.2172 53.92 49.34C53.8979 48.7047 54.0918 48.0808 54.47 47.57L54.63 47.3C54.63 47.19 54.63 47.82 55.1 47.85C55.1 47.85 54.49 48.85 54.43 48.85M54.56 47.28C54.2633 47.8175 53.858 48.2874 53.37 48.66C53.3282 48.4224 53.3407 48.1785 53.4065 47.9464C53.4723 47.7144 53.5898 47.5002 53.75 47.32C53.75 47.32 54.05 46.87 54.05 46.87C54.05 46.87 53.96 47.29 54.56 47.28ZM53 47.61C52.93 47.17 53.4 46.69 53.72 46.44C53.8 46.53 53.61 46.65 54.12 46.73C54.1134 46.7663 54.1134 46.8036 54.12 46.84C54.0514 46.9338 53.978 47.0239 53.9 47.11C53.6579 47.3539 53.3535 47.5269 53.02 47.61M53.73 46.38C53.4408 46.5984 53.0921 46.724 52.73 46.74C52.8926 46.4005 53.1684 46.1282 53.51 45.97C53.63 46.27 53.78 46.24 53.78 46.24C53.7538 46.2827 53.7367 46.3303 53.73 46.38ZM57.29 46.93C57.56 47.18 57.55 47.58 57.62 47.93C57.52 48.64 57.78 47.72 56.92 50.77C55.67 50.4 58 49.14 56.05 47.85C56.05 47.85 55.68 48.33 55.42 47.71C55.5 47.59 54.8 48.03 54.78 47.19C54.87 47.07 54.14 47.5 54.2 46.67C54.33 46.67 53.58 46.75 53.89 46.2C53.89 46.2 53.62 46.2 53.58 45.94L54.64 45.41C54.64 45.59 54.47 47.56 56.4 46.55C56.5693 46.534 56.7398 46.5614 56.8956 46.6296C57.0513 46.6978 57.187 46.8047 57.29 46.94M48.38 38.47L50.98 39.36C50.98 39.36 50.72 39.66 51.21 40.07C50.15 39.5 49.89 40.35 48.38 38.47ZM51 40.82C50.2823 40.6637 49.6194 40.3185 49.08 39.82C50.08 39.65 51.74 40.36 53.16 40.71C52.75 40.86 52.72 41 52.67 41.23L51 40.82ZM49.39 40.82C50.5069 40.8323 51.6145 41.0247 52.67 41.39C52.6936 41.5333 52.7482 41.6698 52.83 41.79C52.7718 41.7694 52.7082 41.7694 52.65 41.79C51.4943 41.7494 50.3697 41.4044 49.39 40.79M52 42.39C51.3106 42.2984 50.649 42.0597 50.06 41.69C50.9003 41.6585 51.7416 41.7155 52.57 41.86C52.57 41.86 52.43 42.04 52.57 42.35L52.48 42.44L52 42.39ZM52.3 43.17C51.66 43.1606 51.0398 42.9469 50.53 42.56C50.7461 42.4719 50.9767 42.4245 51.21 42.42C51.29 42.42 52.44 42.5 52.44 42.5C52.44 42.5 52.19 42.86 52.61 43.19L52.3 43.17ZM52.04 43.87C51.7993 43.8872 51.5576 43.8523 51.3316 43.7678C51.1055 43.6832 50.9003 43.551 50.73 43.38C51.3276 43.2095 51.9535 43.1619 52.57 43.24C52.5 43.37 52.26 43.47 52.57 43.89C52.57 43.89 52.07 43.89 52.02 43.89M51.33 44.37C51.5056 44.2167 51.7104 44.1004 51.9321 44.0282C52.1538 43.9561 52.3878 43.9294 52.62 43.95C52.62 43.95 52.68 43.95 52.71 43.95C52.74 43.95 52.45 44.07 52.71 44.44C52.33 44.55 51.65 44.64 51.33 44.32M51.87 45.07C52.01 44.91 51.77 44.96 52.75 44.47C52.7927 44.4981 52.8401 44.5185 52.89 44.53C52.89 44.53 52.79 44.63 52.96 44.9C52.6275 45.0816 52.242 45.1417 51.87 45.07ZM51 39.7C51 39.7 51 39.46 51 39.38C51.9361 39.6775 52.8458 40.0521 53.72 40.5C53.67 40.8 54.72 40.78 54.13 42.29C54.13 42.63 52.03 43.1 54.02 44.37C53.66 44.56 53.02 44.84 52.96 44.9C52.81 44.75 52.96 44.5 52.96 44.5C52.96 44.5 52.33 44.42 52.77 43.98C52.96 44.04 52.07 43.59 52.69 43.21C52.88 43.29 52.02 42.76 52.64 42.39C52.8 42.39 52.1 41.98 52.9 41.79C52.58 40.38 53.68 41.09 50.98 39.7M50.46 53.36L49.82 54.69L49 54.3L49.44 53.39C49.7722 53.4287 50.1078 53.4287 50.44 53.39M51.07 53.19L50.9 53.54L50.52 53.37C50.7084 53.3265 50.8924 53.2663 51.07 53.19ZM45.7 54.08L46.7 52.08C47.136 52.4772 47.6238 52.8135 48.15 53.08L47.31 54.86L45.7 54.08ZM45.35 55.65L43.35 54.7C43.55 54.64 43.49 54.7 44.26 54.27L45.74 54.96L45.35 55.65ZM36.85 55.44C36.462 55.5817 36.0468 55.6328 35.636 55.5895C35.2253 55.5461 34.8299 55.4095 34.48 55.19L37.67 53.61L38.21 53.86C37.9649 54.5351 37.4811 55.0971 36.85 55.44ZM37 53.26L34.37 54.59C34.4592 54.1949 34.6275 53.8221 34.8646 53.4938C35.1018 53.1656 35.403 52.8887 35.75 52.68L37 53.26ZM41.06 49C41.593 48.7948 42.1735 48.746 42.7333 48.8594C43.2931 48.9728 43.8088 49.2436 44.22 49.64L39.84 51.87C39.95 50.77 40.24 49.36 41.06 49ZM40.06 52.48L44.64 50.21C44.82 52.21 43.11 54.73 40.06 52.48ZM21.92 47.32H21.59C21.73 47.84 19.86 48.44 20.36 46.81C20.1156 46.5205 19.9585 46.1676 19.9069 45.7923C19.8552 45.417 19.9113 45.0348 20.0684 44.6901C20.2256 44.3454 20.4774 44.0524 20.7946 43.8453C21.1117 43.6381 21.4812 43.5253 21.86 43.52C21.93 42.99 23.47 42.79 23.12 44.14C23.3272 44.4099 23.4621 44.7283 23.5119 45.065C23.5617 45.4016 23.5248 45.7454 23.4046 46.0638C23.2845 46.3822 23.0851 46.6647 22.8253 46.8845C22.5655 47.1043 22.2539 47.2542 21.92 47.32ZM58.21 42.9C58.0397 42.6497 57.803 42.4517 57.5264 42.3284C57.2499 42.2051 56.9445 42.1612 56.6445 42.2017C56.3444 42.2422 56.0615 42.3654 55.8276 42.5576C55.5937 42.7499 55.4179 43.0035 55.32 43.29C54.85 43.66 54.74 43.97 54.77 44.21L45.77 48.8C44.88 48.04 46.34 39.92 48.52 45.58C48.52 45.42 48.67 43.44 49.23 45.85C49.2927 45.5306 49.4663 45.2437 49.72 45.04C49.72 40.77 42.77 41.78 44.25 48.04C41.5 46.31 38.64 48.32 38.48 51.57C37.7126 51.2904 36.8865 51.2112 36.08 51.34L25.73 46.52L25.2 46.29L25.92 44.79C25.82 44.79 25.62 44.67 25.15 44.44C25.1092 44.2559 25.0279 44.0832 24.912 43.9344C24.7961 43.7857 24.6485 43.6646 24.48 43.58C24.58 43.28 24.62 43.45 24.06 42.58C24.35 42.03 23.58 40.37 22.33 41.77C21.85 41.53 22.33 41.66 21.33 42.08C20.93 41.98 19.94 41.92 19.38 43.3C19.38 43.3 17.83 43.3 18.63 44.9C18.21 45.55 17.97 46 18.92 47.16C18.82 47.45 18.78 47.3 19.35 48.16C19.06 48.7 19.82 50.35 21.08 48.96C21.55 49.2 21.08 49.07 22.08 48.65C22.2526 48.7291 22.4402 48.77 22.63 48.77C22.8198 48.77 23.0074 48.7291 23.18 48.65L23.94 49.01L24.6 47.62L34.39 52.15C33.7548 52.784 33.347 53.6102 33.23 54.5C32.09 52.74 26.67 54.09 28.23 57.05C28.44 56.05 29.91 53.57 32.75 55.49C22.64 60.49 29.69 57.92 33.07 55.94C32.92 56.77 32.84 60.19 29.13 58.81C29.84 60.68 34.52 60.38 34.13 56.36C37 57.43 37.94 56.74 39.35 54.46L48.53 58.71C48.48 58.71 50.13 58.8 49.12 57.47C49.12 57.47 48.76 57.29 48.12 57L48.45 56.31L49.99 57.02L51.69 53.42L51.22 53.2C52.47 52.94 53.58 49.2 51.54 48.77C51.226 48.8532 50.8925 48.8213 50.6 48.68C50.77 49.15 52.03 50.48 50.4 49.41C53.79 53.83 46.5 51.54 46.01 49.56L55.13 45.04C55.3 45.21 55.58 45.27 56.18 45.1C56.93 45.24 58.66 45.1 58.18 43" fill="#FABC42"/>
</g>
<defs>
<clipPath id="clip0_1349_60">
<rect width="260" height="79" fill="white"/>
</clipPath>
</defs>
</svg>
