<svg width="72" height="22" viewBox="0 0 72 22" fill="none" xmlns="http://www.w3.org/2000/svg">
<g clip-path="url(#clip0_643_24486)">
<path d="M31.5832 2.77717C31.8169 2.11297 32.2545 1.91589 32.8959 1.91589C33.5374 1.91589 33.9749 2.11297 34.2076 2.77717L38.99 16.9278H39.0486L41.7605 2.92524C41.9067 2.21098 42.3731 1.91589 43.1597 1.91589C43.8897 1.91589 44.3273 2.35905 44.3273 2.90021C44.3212 3.27383 44.2721 3.64546 44.1811 4.00757L41.0316 18.3063C40.8566 19.0695 40.4777 19.7337 39.1949 19.7337C38.2034 19.7337 37.5908 19.5127 37.182 18.3063L32.9248 5.46007H32.8671L28.6098 18.3063C28.198 19.5127 27.5885 19.7337 26.597 19.7337C25.3142 19.7337 24.9353 19.0695 24.7603 18.3063L21.6108 4.00757C21.5198 3.64546 21.4707 3.27383 21.4646 2.90021C21.4646 2.35905 21.9022 1.91589 22.6311 1.91589C23.4187 1.91589 23.8851 2.21098 24.0313 2.92524L26.7432 16.9278H26.8009L31.5832 2.77717Z" fill="#F78D1E"/>
<path d="M49.3164 18.5753C49.3164 19.2885 48.8201 19.7316 48.0335 19.7316C47.2469 19.7316 46.7424 19.2906 46.7424 18.5753V3.07226C46.7424 2.35905 47.2387 1.91589 48.0263 1.91589C48.8139 1.91589 49.3164 2.35905 49.3164 3.07226V18.5753Z" fill="#F78D1E"/>
<path d="M55.2623 18.5753C55.2623 19.2885 54.766 19.7316 53.9784 19.7316C53.1908 19.7316 52.6956 19.2885 52.6956 18.5753V3.07226C52.6956 2.35905 53.1918 1.91589 53.9784 1.91589C54.765 1.91589 55.2623 2.35905 55.2623 3.07226V9.47137L64.1557 2.60513C64.6221 2.23601 65.0309 1.91589 65.5559 1.91589C66.1974 1.91589 66.6638 2.28501 66.6638 2.85433C66.6638 3.42365 66.43 3.61655 66.1387 3.83865L57.6241 10.3108L66.9222 17.8881C67.334 18.2082 67.4473 18.4543 67.4473 18.7734C67.4473 19.2947 66.8923 19.7337 66.1932 19.7337C65.8144 19.7337 65.4633 19.6847 64.9392 19.2666L55.2612 11.2429L55.2623 18.5753Z" fill="#F78D1E"/>
<path d="M72.0001 18.5753C72.0001 19.2885 71.5038 19.7316 70.7162 19.7316C69.9286 19.7316 69.4333 19.2885 69.4333 18.5753V3.07226C69.4333 2.35905 69.9296 1.91589 70.7162 1.91589C71.5028 1.91589 72.0001 2.35905 72.0001 3.07226V18.5753Z" fill="#F78D1E"/>
<path d="M3.71675 11.7038C3.90089 11.7035 4.07739 11.6292 4.2075 11.4973C4.33761 11.3653 4.41069 11.1865 4.41068 11C4.41069 10.8135 4.33761 10.6346 4.2075 10.5027C4.07739 10.3707 3.90089 10.2964 3.71675 10.2961H0.694961C0.510646 10.2961 0.33388 10.3703 0.203549 10.5023C0.0732189 10.6343 0 10.8133 0 11C0 11.1866 0.0732189 11.3657 0.203549 11.4977C0.33388 11.6296 0.510646 11.7038 0.694961 11.7038H3.71675Z" fill="#008FD4"/>
<path d="M9.22485 17.2834C9.22485 17.0968 9.29807 16.9177 9.4284 16.7857C9.55873 16.6537 9.7355 16.5796 9.91981 16.5796C10.1041 16.5796 10.2809 16.6537 10.4112 16.7857C10.5416 16.9177 10.6148 17.0968 10.6148 17.2834V20.3479C10.6148 20.5346 10.5416 20.7136 10.4112 20.8456C10.2809 20.9776 10.1041 21.0518 9.91981 21.0518C9.7355 21.0518 9.55873 20.9776 9.4284 20.8456C9.29807 20.7136 9.22485 20.5346 9.22485 20.3479V17.2834Z" fill="#ED1C24"/>
<path d="M9.22485 1.65628C9.22513 1.46979 9.29847 1.29104 9.42877 1.15927C9.55907 1.0275 9.73568 0.953491 9.91981 0.953491C10.104 0.953491 10.2806 1.0275 10.4109 1.15927C10.5412 1.29104 10.6145 1.46979 10.6148 1.65628V4.71663C10.6148 4.9033 10.5416 5.08232 10.4112 5.21431C10.2809 5.34631 10.1041 5.42046 9.91981 5.42046C9.7355 5.42046 9.55873 5.34631 9.4284 5.21431C9.29807 5.08232 9.22485 4.9033 9.22485 4.71663V1.65628Z" fill="#8CC63F"/>
<path d="M11.5683 10.9635L17.408 4.09103C17.5142 3.96601 17.5951 3.82103 17.646 3.66437C17.6969 3.5077 17.7168 3.34243 17.7046 3.17797C17.6924 3.01351 17.6483 2.8531 17.5749 2.70588C17.5015 2.55867 17.4002 2.42754 17.2768 2.31998C17.1533 2.21242 17.0102 2.13054 16.8555 2.07901C16.7008 2.02748 16.5376 2.00731 16.3752 2.01966C16.2128 2.03201 16.0544 2.07662 15.9091 2.15096C15.7637 2.2253 15.6342 2.32791 15.528 2.45293L9.93232 9.03451L4.3366 2.44876C4.12211 2.19627 3.81737 2.04042 3.48942 2.01549C3.16147 1.99056 2.83718 2.09859 2.58787 2.31581C2.33857 2.53304 2.18468 2.84166 2.16006 3.1738C2.13545 3.50593 2.24211 3.83437 2.4566 4.08685L8.29633 10.9635L2.4566 17.8319C2.35033 17.9569 2.26941 18.1019 2.21847 18.2586C2.16753 18.4152 2.14756 18.5806 2.1597 18.7451C2.17184 18.9096 2.21586 19.07 2.28924 19.2173C2.36261 19.3646 2.46392 19.4958 2.58736 19.6034C2.83666 19.8208 3.16101 19.9289 3.48906 19.9041C3.81711 19.8793 4.12198 19.7235 4.3366 19.471L9.93232 12.8852L15.528 19.471C15.7427 19.7235 16.0475 19.8793 16.3756 19.9041C16.7036 19.9289 17.028 19.8208 17.2773 19.6034C17.5266 19.3861 17.6804 19.0773 17.7049 18.7451C17.7295 18.4128 17.6227 18.0843 17.408 17.8319L11.5683 10.9635Z" fill="#626366"/>
<path d="M19.0647 11.7194C19.2488 11.7192 19.4253 11.6449 19.5554 11.5129C19.6855 11.3809 19.7586 11.2021 19.7586 11.0156C19.7586 10.8291 19.6855 10.6502 19.5554 10.5183C19.4253 10.3863 19.2488 10.312 19.0647 10.3118H16.0429C15.8585 10.3118 15.6818 10.3859 15.5514 10.5179C15.4211 10.6499 15.3479 10.8289 15.3479 11.0156C15.3479 11.2023 15.4211 11.3813 15.5514 11.5133C15.6818 11.6453 15.8585 11.7194 16.0429 11.7194H19.0647Z" fill="#F78D1E"/>
</g>
<defs>
<clipPath id="clip0_643_24486">
<rect width="72" height="20.093" fill="white" transform="translate(0 0.953491)"/>
</clipPath>
</defs>
</svg>
