<svg width="388" height="388" viewBox="0 0 388 388" fill="none" xmlns="http://www.w3.org/2000/svg">
<g clip-path="url(#clip0_377_21071)">
<rect width="388" height="388" fill="#F0F0F0"/>
<path d="M218.562 49.3613C219.488 49.6707 220.419 49.9623 221.351 50.2539C234.333 54.3795 245.529 61.0872 255.383 70.4766C255.678 70.7516 255.973 71.0266 256.277 71.3099C267.661 82.2295 276.469 99.5868 277.03 115.459C277.033 115.972 277.034 116.486 277.034 116.999C277.035 117.427 277.035 117.427 277.037 117.864C277.04 118.814 277.041 119.765 277.042 120.715C277.043 121.4 277.045 122.084 277.047 122.769C277.052 124.627 277.055 126.485 277.056 128.344C277.057 129.511 277.059 130.678 277.061 131.846C277.066 135.515 277.07 139.184 277.071 142.854C277.073 147.055 277.079 151.257 277.09 155.459C277.099 158.725 277.102 161.991 277.103 165.258C277.103 167.199 277.105 169.14 277.112 171.081C277.137 178.393 277.102 185.67 276.471 192.96C276.449 193.222 276.426 193.485 276.403 193.755C275.53 203.666 273.504 213.697 269.402 222.797C269.182 223.314 268.963 223.831 268.744 224.348C265.35 232.292 260.991 239.481 255.423 246.094C254.315 247.418 253.264 248.786 252.211 250.154C252.007 250.379 251.804 250.604 251.594 250.836C251.344 250.836 251.094 250.836 250.836 250.836C250.751 251.045 250.666 251.253 250.578 251.468C249.922 252.627 249.084 253.431 248.136 254.365C247.95 254.548 247.764 254.731 247.573 254.92C243.808 258.602 243.808 258.602 241.902 259.772C240.842 260.829 240.76 261.437 240.74 262.908C240.749 263.35 240.749 263.35 240.757 263.8C240.755 264.27 240.755 264.27 240.753 264.749C240.75 265.788 240.761 266.825 240.773 267.863C240.774 268.59 240.775 269.318 240.775 270.045C240.778 271.574 240.786 273.103 240.8 274.632C240.817 276.569 240.823 278.507 240.824 280.445C240.826 281.951 240.832 283.457 240.839 284.963C240.842 285.675 240.845 286.388 240.846 287.101C240.886 298.448 241.334 310.475 249.451 319.24C253.336 322.924 258.225 325.289 262.985 327.636C263.521 327.902 264.057 328.168 264.593 328.434C268.305 330.273 272.05 332.035 275.816 333.761C279.707 335.551 283.554 337.426 287.4 339.311C292.191 341.657 296.992 343.969 301.845 346.184C304.037 347.188 306.203 348.23 308.356 349.315C311.089 350.692 313.848 352.005 316.623 353.297C321.643 355.637 326.636 358.029 331.614 360.458C331.911 360.603 332.209 360.749 332.515 360.898C333.107 361.187 333.698 361.475 334.289 361.764C334.574 361.903 334.859 362.042 335.153 362.186C335.433 362.322 335.713 362.459 336.001 362.6C339.338 364.228 342.689 365.826 346.042 367.423C347.952 368.335 349.859 369.252 351.767 370.168C352.162 370.358 352.557 370.547 352.964 370.743C353.763 371.126 354.562 371.51 355.361 371.894C356.917 372.641 358.473 373.387 360.029 374.132C360.805 374.505 361.581 374.878 362.357 375.252C364.277 376.176 366.199 377.096 368.127 378.003C377.096 382.229 377.096 382.229 380.706 384.424C380.95 384.568 381.194 384.713 381.445 384.862C382.512 385.543 383.019 385.933 383.412 387.158C383.425 387.436 383.439 387.714 383.453 388C377.836 387.532 373.188 385.556 368.131 383.216C367.11 382.749 366.088 382.283 365.066 381.817C364.399 381.512 363.732 381.208 363.065 380.903C360.658 379.802 358.235 378.745 355.793 377.722C353.415 376.72 351.099 375.644 348.803 374.467C346.356 373.22 343.865 372.074 341.371 370.926C337.457 369.122 333.57 367.271 329.696 365.384C325.998 363.583 322.29 361.813 318.528 360.149C315.781 358.925 313.101 357.575 310.417 356.222C307.984 354.995 305.548 353.776 303.112 352.556C302.478 352.237 301.844 351.919 301.21 351.601C297.177 349.574 293.127 347.591 289.052 345.651C284.429 343.448 279.836 341.183 275.24 338.924C274.072 338.35 272.904 337.776 271.735 337.203C271.355 337.016 270.974 336.83 270.583 336.637C267.521 335.138 264.449 333.665 261.367 332.209C256.521 329.908 251.861 327.517 247.805 323.965C247.493 323.724 247.181 323.483 246.86 323.235C239.81 317.404 237.2 307.795 236.337 299.084C236.025 295.408 235.975 291.743 235.939 288.056C235.931 287.384 235.923 286.711 235.915 286.038C235.894 284.285 235.875 282.531 235.857 280.778C235.838 278.982 235.817 277.186 235.796 275.39C235.755 271.879 235.717 268.367 235.68 264.855C234.346 265.291 233.111 265.717 231.889 266.41C224.752 270.361 217.463 272.844 209.535 274.707C209.275 274.771 209.014 274.835 208.746 274.901C204.154 276.021 199.459 276.273 194.758 276.602C194.391 282.547 194.315 288.476 194.301 294.431C194.297 295.44 194.294 296.449 194.29 297.458C194.282 299.615 194.275 301.771 194.269 303.927C194.26 307.045 194.249 310.162 194.238 313.28C194.22 318.34 194.204 323.4 194.188 328.461C194.173 333.371 194.158 338.281 194.141 343.191C194.14 343.647 194.14 343.647 194.138 344.111C194.133 345.635 194.128 347.158 194.122 348.681C194.079 361.282 194.039 373.883 194 386.484C184.291 386.543 174.581 386.597 164.872 386.65C164.488 386.652 164.105 386.654 163.71 386.657C129.101 386.845 94.4922 386.96 57.8374 387.073C56.8091 387.076 55.7808 387.08 54.7525 387.083C37.1332 387.137 19.5139 387.19 1.89453 387.242C2.60988 385.611 3.39894 385.216 5.00571 384.426C5.36404 384.247 5.36404 384.247 5.72962 384.065C6.51725 383.675 7.30803 383.292 8.09912 382.908C8.65481 382.635 9.21037 382.362 9.76581 382.088C13.5284 380.241 17.3221 378.464 21.1323 376.717C25.2095 374.84 29.2417 372.875 33.2727 370.902C33.6116 370.736 33.9506 370.57 34.2998 370.399C35.6256 369.751 36.9514 369.102 38.2771 368.453C42.9994 366.142 47.7428 363.878 52.5037 361.648C53.5689 361.149 54.6341 360.65 55.6992 360.15C55.9681 360.024 56.237 359.898 56.5141 359.768C62.0377 357.176 67.522 354.505 73.0037 351.826C73.4562 351.605 73.4562 351.605 73.9178 351.379C74.2138 351.235 74.5099 351.09 74.8149 350.941C78.1956 349.29 81.5904 347.668 84.9875 346.051C86.8937 345.142 88.797 344.227 90.7007 343.313C91.0978 343.122 91.4949 342.932 91.9041 342.735C93.8397 341.806 95.7748 340.876 97.709 339.944C102.108 337.826 106.516 335.729 110.932 333.646C111.821 333.226 112.71 332.806 113.599 332.386C116.128 331.191 118.656 329.998 121.194 328.823C131.434 324.054 140.521 318.267 145.054 307.383C147.127 301.682 147.222 296.047 147.164 290.05C147.161 289.176 147.159 288.302 147.157 287.429C147.151 285.152 147.137 282.876 147.12 280.6C147.104 278.268 147.097 275.936 147.09 273.604C147.073 269.046 147.048 264.488 147.016 259.93C146.789 259.823 146.562 259.717 146.329 259.607C145.102 258.963 144.103 258.061 143.061 257.159C142.828 256.958 142.595 256.756 142.356 256.549C138.129 252.849 134.451 248.901 131.102 244.395C130.941 244.183 130.78 243.972 130.615 243.754C122.069 232.499 116.906 218.972 114.311 205.178C114.251 204.862 114.19 204.545 114.128 204.22C113.154 198.713 113.236 193.113 113.238 187.541C113.237 186.753 113.235 185.965 113.234 185.177C113.231 183.052 113.23 180.928 113.23 178.803C113.229 177.471 113.229 176.14 113.228 174.808C113.224 170.152 113.222 165.495 113.223 160.839C113.223 156.516 113.219 152.194 113.213 147.871C113.208 144.144 113.206 140.418 113.206 136.691C113.206 134.472 113.205 132.253 113.201 130.034C113.198 127.945 113.198 125.856 113.2 123.768C113.201 123.007 113.2 122.246 113.198 121.485C113.18 115.37 113.369 109.211 114.88 103.252C114.961 102.925 115.041 102.598 115.125 102.261C118.131 90.5764 124.151 80.1103 132.461 71.4161C132.816 71.0443 133.169 70.6706 133.519 70.2949C153.653 48.756 190.707 40.0315 218.562 49.3613Z" fill="#C2C2C2"/>
<path d="M192.902 50.6745C193.785 50.6786 194.668 50.6745 195.552 50.6697C214.745 50.6505 234.055 57.4516 248.677 69.928C249.309 70.4666 249.946 70.9986 250.584 71.5288C252.164 72.8466 252.164 72.8466 252.73 73.5077C252.73 73.7578 252.73 74.0079 252.73 74.2655C252.981 74.2655 253.231 74.2655 253.488 74.2655C254.467 75.1825 255.286 76.2658 256.141 77.2968C256.304 77.4879 256.468 77.6791 256.636 77.876C269.662 93.1287 272.966 110.765 272.9 130.281C272.899 131.186 272.899 132.09 272.899 132.994C272.899 134.867 272.896 136.74 272.891 138.612C272.884 141.018 272.883 143.423 272.883 145.828C272.883 147.684 272.881 149.541 272.878 151.398C272.877 152.286 272.876 153.174 272.876 154.062C272.875 155.292 272.872 156.522 272.868 157.753C272.868 158.304 272.868 158.304 272.868 158.867C272.866 159.199 272.865 159.531 272.863 159.873C272.863 160.164 272.862 160.454 272.861 160.753C272.813 161.414 272.813 161.414 272.434 161.793C271.544 161.832 270.665 161.845 269.775 161.844C269.353 161.845 269.353 161.845 268.922 161.846C267.972 161.849 267.022 161.848 266.072 161.848C265.394 161.849 264.716 161.85 264.038 161.852C262.19 161.855 260.342 161.856 258.495 161.856C256.955 161.857 255.416 161.858 253.876 161.859C250.245 161.862 246.614 161.863 242.983 161.863C239.232 161.863 235.48 161.867 231.728 161.873C228.513 161.878 225.297 161.88 222.081 161.88C220.158 161.879 218.235 161.881 216.313 161.885C214.505 161.888 212.697 161.888 210.889 161.886C210.224 161.885 209.559 161.886 208.894 161.888C207.989 161.891 207.084 161.889 206.179 161.887C205.913 161.888 205.648 161.89 205.374 161.892C203.559 161.879 203.559 161.879 202.715 161.035C202.555 160.045 202.555 160.045 202.459 158.778C202.42 158.307 202.381 157.836 202.341 157.351C202.321 157.098 202.301 156.846 202.281 156.587C201.519 147.116 199.917 137.895 197.031 128.828C196.893 128.393 196.893 128.393 196.752 127.949C193.271 117.288 186.915 108.009 176.82 102.717C175.739 102.172 174.643 101.665 173.539 101.168C173.202 101.016 172.865 100.864 172.518 100.708C164.168 97.3242 153.245 97.2915 144.742 100.031C144.485 100.112 144.229 100.194 143.964 100.277C138.242 102.137 133.093 104.91 128.449 108.746C127.882 109.213 127.882 109.213 127.304 109.689C123.35 113.065 120.389 117.242 117.849 121.758C117.721 121.965 117.593 122.173 117.461 122.387C117.336 122.387 117.211 122.387 117.082 122.387C116.947 117.314 117.168 112.576 118.219 107.609C118.301 107.202 118.301 107.202 118.385 106.787C119.677 100.442 122.003 94.7435 125.039 89.0429C125.157 88.8173 125.275 88.5918 125.397 88.3594C133.716 72.5743 149.239 60.5928 166.039 54.9857C174.911 52.3726 183.634 50.6241 192.902 50.6745Z" fill="#E5E5E5"/>
<path d="M234.922 264.477C235.297 264.602 235.672 264.727 236.059 264.855C236.062 265.22 236.065 265.585 236.068 265.96C236.097 269.427 236.131 272.893 236.168 276.359C236.186 278.14 236.204 279.921 236.218 281.703C236.233 283.427 236.25 285.152 236.27 286.877C236.277 287.529 236.283 288.181 236.287 288.833C236.319 293.266 236.635 297.591 237.195 301.988C237.235 302.337 237.274 302.687 237.314 303.046C238.083 309.845 240.844 316.933 245.91 321.691C245.91 321.941 245.91 322.192 245.91 322.449C246.242 322.598 246.242 322.598 246.58 322.75C247.47 323.231 248.095 323.766 248.832 324.456C250.358 325.818 251.946 326.85 253.725 327.849C254.034 328.025 254.344 328.201 254.662 328.382C260.395 331.606 266.364 334.387 272.299 337.213C275.001 338.502 277.697 339.804 280.391 341.11C280.646 341.234 280.9 341.357 281.163 341.485C286.59 344.117 292.006 346.771 297.422 349.425C302.304 351.817 307.191 354.196 312.094 356.546C314.15 357.533 316.198 358.531 318.234 359.558C328.304 364.635 338.554 369.349 348.811 374.032C350.529 374.817 352.244 375.608 353.955 376.41C357.293 377.976 360.652 379.492 364.018 380.997C364.961 381.418 365.903 381.84 366.846 382.263C370.09 383.716 373.34 385.144 376.633 386.484C376.633 386.609 376.633 386.734 376.633 386.863C292.231 386.863 207.83 386.863 120.871 386.863C120.871 386.738 120.871 386.613 120.871 386.484C145.004 386.484 169.136 386.484 194 386.484C193.991 379.187 193.982 371.89 193.973 364.372C193.969 359.744 193.966 355.116 193.963 350.488C193.962 348.056 193.96 345.624 193.958 343.191C193.958 342.887 193.958 342.582 193.958 342.268C193.954 337.361 193.949 332.454 193.942 327.548C193.934 322.504 193.93 317.46 193.929 312.416C193.928 309.309 193.924 306.202 193.918 303.096C193.914 300.959 193.913 298.822 193.914 296.685C193.914 295.456 193.913 294.228 193.91 292.999C193.894 287.482 194.071 282.079 194.758 276.602C196.853 276.121 198.872 275.801 201.022 275.69C203.714 275.508 206.286 275.073 208.919 274.494C209.377 274.393 209.835 274.293 210.307 274.189C218.473 272.33 226.967 269.59 234.025 264.959C234.321 264.8 234.617 264.641 234.922 264.477Z" fill="#DBDBDB"/>
<path d="M218.562 49.3613C219.488 49.6707 220.419 49.9623 221.351 50.2539C234.333 54.3795 245.529 61.0872 255.383 70.4766C255.678 70.7516 255.973 71.0266 256.277 71.3099C267.661 82.2295 276.469 99.5868 277.03 115.459C277.033 115.972 277.034 116.486 277.034 116.999C277.035 117.427 277.035 117.427 277.037 117.864C277.04 118.814 277.041 119.765 277.042 120.715C277.043 121.4 277.045 122.084 277.047 122.769C277.052 124.627 277.055 126.485 277.056 128.344C277.057 129.511 277.059 130.678 277.061 131.846C277.066 135.515 277.07 139.184 277.071 142.854C277.073 147.055 277.079 151.257 277.09 155.459C277.099 158.725 277.102 161.991 277.103 165.258C277.103 167.199 277.105 169.14 277.112 171.081C277.137 178.393 277.102 185.67 276.471 192.96C276.449 193.222 276.426 193.485 276.403 193.755C275.53 203.666 273.504 213.697 269.402 222.797C269.182 223.314 268.963 223.831 268.744 224.348C265.35 232.292 260.991 239.481 255.423 246.094C254.315 247.418 253.264 248.786 252.211 250.154C252.007 250.379 251.804 250.604 251.594 250.836C251.344 250.836 251.094 250.836 250.836 250.836C250.751 251.045 250.666 251.253 250.578 251.468C249.922 252.627 249.084 253.431 248.136 254.365C247.95 254.548 247.764 254.731 247.573 254.92C243.808 258.602 243.808 258.602 241.902 259.772C240.842 260.829 240.76 261.437 240.74 262.908C240.749 263.35 240.749 263.35 240.757 263.8C240.755 264.27 240.755 264.27 240.753 264.749C240.75 265.788 240.761 266.825 240.773 267.863C240.774 268.59 240.775 269.318 240.775 270.045C240.778 271.574 240.786 273.103 240.8 274.632C240.817 276.569 240.823 278.507 240.824 280.445C240.826 281.951 240.832 283.457 240.839 284.963C240.842 285.675 240.845 286.388 240.846 287.101C240.886 298.448 241.334 310.475 249.451 319.24C253.336 322.924 258.225 325.289 262.985 327.636C263.521 327.902 264.057 328.168 264.593 328.434C268.305 330.273 272.05 332.035 275.816 333.761C279.707 335.551 283.554 337.426 287.4 339.311C292.191 341.657 296.992 343.969 301.845 346.184C304.037 347.188 306.203 348.23 308.356 349.315C311.089 350.692 313.848 352.005 316.623 353.297C321.643 355.637 326.636 358.029 331.614 360.458C331.911 360.603 332.209 360.749 332.515 360.898C333.107 361.187 333.698 361.475 334.289 361.764C334.574 361.903 334.859 362.042 335.153 362.186C335.433 362.322 335.713 362.459 336.001 362.6C339.338 364.228 342.689 365.826 346.042 367.423C347.952 368.335 349.859 369.252 351.767 370.168C352.162 370.358 352.557 370.547 352.964 370.743C353.763 371.126 354.562 371.51 355.361 371.894C356.917 372.641 358.473 373.387 360.029 374.132C360.805 374.505 361.581 374.878 362.357 375.252C364.277 376.176 366.199 377.096 368.127 378.003C377.096 382.229 377.096 382.229 380.706 384.424C380.95 384.568 381.194 384.713 381.445 384.862C382.512 385.543 383.019 385.933 383.412 387.158C383.425 387.436 383.439 387.714 383.453 388C377.836 387.532 373.188 385.556 368.131 383.216C367.11 382.749 366.088 382.283 365.066 381.817C364.399 381.512 363.732 381.208 363.065 380.903C360.658 379.802 358.235 378.745 355.793 377.722C353.415 376.72 351.099 375.644 348.803 374.467C346.356 373.22 343.865 372.074 341.371 370.926C337.457 369.122 333.57 367.271 329.696 365.384C325.998 363.583 322.29 361.813 318.528 360.149C315.781 358.925 313.101 357.575 310.417 356.222C307.984 354.995 305.548 353.776 303.112 352.556C302.478 352.237 301.844 351.919 301.21 351.601C297.177 349.574 293.127 347.591 289.052 345.651C284.429 343.448 279.836 341.183 275.24 338.924C274.072 338.35 272.904 337.776 271.735 337.203C271.355 337.016 270.974 336.83 270.583 336.637C267.521 335.138 264.449 333.665 261.367 332.209C256.521 329.908 251.861 327.517 247.805 323.965C247.493 323.724 247.181 323.483 246.86 323.235C239.81 317.404 237.2 307.795 236.337 299.084C236.025 295.408 235.975 291.743 235.939 288.056C235.931 287.384 235.923 286.711 235.915 286.038C235.894 284.285 235.875 282.531 235.857 280.778C235.838 278.982 235.817 277.186 235.796 275.39C235.755 271.879 235.717 268.367 235.68 264.855C234.346 265.291 233.111 265.717 231.889 266.41C224.758 270.358 217.463 272.862 209.535 274.707C209.255 274.773 208.974 274.839 208.685 274.907C189.826 279.257 170.313 275.034 153.798 265.632C153.062 265.226 152.315 264.85 151.562 264.477C151.564 264.844 151.566 265.212 151.568 265.591C151.583 269.09 151.594 272.59 151.602 276.089C151.606 277.887 151.611 279.685 151.62 281.484C151.628 283.225 151.632 284.967 151.634 286.709C151.636 287.367 151.638 288.025 151.643 288.683C151.664 292.216 151.57 295.708 151.231 299.228C151.202 299.534 151.173 299.841 151.143 300.156C150.822 303.179 150 305.978 148.91 308.809C148.814 309.063 148.718 309.316 148.618 309.578C143.971 321.594 135.003 327.598 123.902 333.059C123.66 333.178 123.418 333.297 123.168 333.42C119.509 335.218 115.834 336.984 112.156 338.742C111.374 339.117 110.591 339.492 109.809 339.867C108.391 340.546 106.973 341.224 105.555 341.901C100.088 344.51 94.6296 347.136 89.1751 349.771C87.1104 350.768 85.0455 351.765 82.9805 352.762C82.5842 352.953 82.1879 353.144 81.7796 353.342C76.7366 355.775 71.6787 358.175 66.6105 360.555C62.3908 362.537 58.1774 364.531 53.9677 366.534C43.7313 371.403 33.4802 376.233 23.1467 380.893C21.5915 381.595 20.0398 382.304 18.4905 383.02C17.4848 383.483 16.4777 383.944 15.4702 384.403C14.7751 384.722 14.0819 385.045 13.3887 385.368C10.1661 386.833 7.71631 387.303 4.16797 387.266C3.73815 387.262 3.30833 387.259 2.86548 387.256C2.54507 387.251 2.22465 387.247 1.89453 387.242C2.46222 385.586 3.48192 385.175 5.00571 384.426C5.36404 384.247 5.36404 384.247 5.72962 384.065C6.51725 383.675 7.30803 383.292 8.09912 382.908C8.65481 382.635 9.21037 382.362 9.76581 382.088C13.5284 380.241 17.3221 378.464 21.1323 376.717C25.2095 374.84 29.2417 372.875 33.2727 370.902C33.6116 370.736 33.9506 370.57 34.2998 370.399C35.6256 369.751 36.9514 369.102 38.2771 368.453C42.9994 366.142 47.7428 363.878 52.5037 361.648C53.5689 361.149 54.6341 360.65 55.6992 360.15C55.9681 360.024 56.237 359.898 56.5141 359.768C62.0377 357.176 67.522 354.505 73.0037 351.826C73.4562 351.605 73.4562 351.605 73.9178 351.379C74.2138 351.235 74.5099 351.09 74.8149 350.941C78.1956 349.29 81.5904 347.668 84.9875 346.051C86.8937 345.142 88.797 344.227 90.7007 343.313C91.0978 343.122 91.4949 342.932 91.9041 342.735C93.8397 341.806 95.7748 340.876 97.709 339.944C102.108 337.826 106.516 335.729 110.932 333.646C111.821 333.226 112.71 332.806 113.599 332.386C116.128 331.191 118.656 329.998 121.194 328.823C131.434 324.054 140.521 318.267 145.054 307.383C147.127 301.682 147.222 296.047 147.164 290.05C147.161 289.176 147.159 288.302 147.157 287.429C147.151 285.152 147.137 282.876 147.12 280.6C147.104 278.268 147.097 275.936 147.09 273.604C147.073 269.046 147.048 264.488 147.016 259.93C146.789 259.823 146.562 259.717 146.329 259.607C145.102 258.963 144.103 258.061 143.061 257.159C142.828 256.958 142.595 256.756 142.356 256.549C138.129 252.849 134.451 248.901 131.102 244.395C130.941 244.183 130.78 243.972 130.615 243.754C122.069 232.499 116.906 218.972 114.311 205.178C114.251 204.862 114.19 204.545 114.128 204.22C113.154 198.713 113.236 193.113 113.238 187.541C113.237 186.753 113.235 185.965 113.234 185.177C113.231 183.052 113.23 180.928 113.23 178.803C113.229 177.471 113.229 176.14 113.228 174.808C113.224 170.152 113.222 165.495 113.223 160.839C113.223 156.516 113.219 152.194 113.213 147.871C113.208 144.144 113.206 140.418 113.206 136.691C113.206 134.472 113.205 132.253 113.201 130.034C113.198 127.945 113.198 125.856 113.2 123.768C113.201 123.007 113.2 122.246 113.198 121.485C113.18 115.37 113.369 109.211 114.88 103.252C114.961 102.925 115.041 102.598 115.125 102.261C118.131 90.5764 124.151 80.1103 132.461 71.4161C132.816 71.0443 133.169 70.6706 133.519 70.2949C153.653 48.756 190.707 40.0315 218.562 49.3613ZM176.997 52.218C176.718 52.2831 176.44 52.3482 176.153 52.4153C175.573 52.5528 174.992 52.6923 174.412 52.8339C173.829 52.9762 173.245 53.1157 172.66 53.2524C162.634 55.6017 152.855 59.9117 144.742 66.3086C144.384 66.588 144.025 66.8674 143.656 67.1552C129.074 78.8042 119.386 94.9201 117.151 113.584C117.014 115.253 117.043 116.924 117.058 118.598C117.06 118.964 117.062 119.329 117.064 119.706C117.068 120.6 117.074 121.493 117.082 122.387C118.214 121.308 118.988 120.086 119.805 118.763C126.38 108.4 136.4 101.828 148.315 99.0597C159.273 96.8055 171.128 98.6778 180.533 104.759C182.844 106.346 184.836 108.272 186.801 110.262C187.191 110.653 187.191 110.653 187.59 111.052C192.573 116.384 195.838 124.164 197.789 131.102C197.877 131.41 197.966 131.718 198.056 132.036C200.474 140.637 201.92 149.57 202.475 158.487C202.508 158.979 202.508 158.979 202.542 159.481C202.557 159.765 202.573 160.049 202.589 160.342C202.664 161.128 202.664 161.128 203.473 161.793C204.389 161.867 205.262 161.893 206.179 161.887C206.602 161.888 206.602 161.888 207.034 161.889C207.984 161.892 208.933 161.888 209.883 161.885C210.562 161.885 211.241 161.886 211.92 161.887C213.767 161.889 215.615 161.886 217.462 161.882C219.392 161.879 221.321 161.88 223.251 161.88C226.491 161.879 229.732 161.876 232.972 161.871C236.724 161.865 240.476 161.863 244.228 161.863C247.831 161.864 251.434 161.862 255.036 161.858C256.573 161.857 258.109 161.856 259.645 161.856C261.453 161.856 263.26 161.854 265.067 161.85C265.732 161.849 266.398 161.848 267.063 161.848C267.967 161.849 268.871 161.846 269.775 161.844C270.042 161.844 270.308 161.845 270.583 161.845C271.804 161.942 271.804 161.942 272.812 161.414C272.85 160.902 272.862 160.387 272.863 159.874C272.865 159.541 272.866 159.209 272.868 158.867C272.868 158.315 272.868 158.315 272.868 157.753C272.869 157.368 272.87 156.982 272.871 156.586C272.875 155.301 272.876 154.016 272.876 152.732C272.877 151.836 272.879 150.94 272.88 150.044C272.882 148.156 272.883 146.268 272.883 144.381C272.883 141.985 272.888 139.59 272.894 137.195C272.899 135.338 272.899 133.481 272.899 131.624C272.9 130.743 272.901 129.862 272.904 128.981C272.964 109.375 268.792 92.6163 256.141 77.2969C255.733 76.8009 255.733 76.8009 255.316 76.2949C254.44 75.2439 254.44 75.2439 253.488 74.2656C253.238 74.2656 252.988 74.2656 252.73 74.2656C252.73 74.0156 252.73 73.7655 252.73 73.5078C252.157 72.9127 252.157 72.9127 251.404 72.3001C249.706 70.8618 249.706 70.8618 249.023 70.2383C244.776 66.365 240.019 63.2502 234.922 60.625C234.469 60.3912 234.469 60.3912 234.007 60.1527C221.81 53.9326 208.367 50.6 194.67 50.6747C193.786 50.6787 192.902 50.6747 192.017 50.6699C186.963 50.6649 181.924 51.0296 176.997 52.218ZM125.636 116.769C124.046 118.611 122.79 120.633 121.629 122.766C121.505 122.991 121.382 123.216 121.255 123.448C118.647 128.315 117.053 133.936 117.024 139.477C117.02 139.933 117.017 140.389 117.014 140.858C117.012 141.354 117.011 141.849 117.009 142.36C117.006 142.891 117.003 143.422 117 143.953C116.99 145.698 116.984 147.442 116.978 149.187C116.976 149.793 116.974 150.399 116.972 151.005C116.964 153.536 116.957 156.068 116.953 158.599C116.947 162.19 116.934 165.782 116.912 169.373C116.898 171.915 116.89 174.458 116.888 177C116.887 178.508 116.883 180.016 116.87 181.524C116.784 192.383 117.575 203.286 120.871 213.703C121.044 214.28 121.217 214.858 121.389 215.435C122.716 219.743 124.423 223.956 126.934 227.723C128.078 227.894 128.078 227.894 129.453 227.862C129.846 227.864 129.846 227.864 130.247 227.866C131.129 227.868 132.01 227.863 132.892 227.858C133.522 227.858 134.153 227.859 134.783 227.86C136.498 227.862 138.213 227.857 139.929 227.85C141.72 227.845 143.512 227.845 145.303 227.845C148.312 227.843 151.32 227.838 154.329 227.829C158.196 227.818 162.063 227.814 165.929 227.813C169.247 227.811 172.566 227.806 175.884 227.801C176.953 227.8 178.023 227.799 179.093 227.797C180.771 227.796 182.448 227.792 184.126 227.786C184.744 227.785 185.361 227.784 185.979 227.783C186.818 227.782 187.658 227.78 188.497 227.776C189.204 227.774 189.204 227.774 189.924 227.772C190.935 227.842 190.935 227.842 191.348 227.344C191.389 226.291 191.405 225.248 191.405 224.195C191.407 223.861 191.408 223.527 191.41 223.183C191.415 222.054 191.417 220.925 191.419 219.796C191.422 218.99 191.426 218.185 191.429 217.379C191.436 215.638 191.442 213.897 191.446 212.157C191.454 209.402 191.464 206.647 191.475 203.892C191.498 198.037 191.518 192.182 191.537 186.327C191.558 180.022 191.579 173.718 191.604 167.413C191.615 164.677 191.624 161.942 191.632 159.206C191.637 157.498 191.643 155.79 191.65 154.081C191.653 153.293 191.656 152.504 191.657 151.716C191.665 148.048 191.682 144.406 192.02 140.751C192.211 138.661 192.175 136.562 192.177 134.464C192.181 134.016 192.186 133.567 192.191 133.104C192.197 129.225 191.82 125.637 190.211 122.079C190.096 121.823 189.982 121.568 189.863 121.304C186.192 113.471 179.687 107.36 171.572 104.338C154.875 98.5015 137.428 103.887 125.636 116.769ZM195.137 165.961C195.137 186.342 195.137 206.724 195.137 227.723C196.414 228.362 197.864 228.186 199.271 228.208C199.772 228.219 199.772 228.219 200.284 228.229C201.719 228.259 203.154 228.285 204.588 228.311C205.634 228.33 206.679 228.352 207.725 228.374C208.052 228.379 208.379 228.384 208.716 228.39C211.008 228.438 211.008 228.438 211.43 228.859C211.602 229.865 211.696 230.876 211.809 231.891C211.328 231.9 210.848 231.91 210.354 231.919C208.579 231.955 206.805 231.993 205.03 232.032C204.261 232.048 203.492 232.064 202.722 232.079C201.619 232.101 200.516 232.125 199.413 232.15C198.894 232.159 198.894 232.159 198.364 232.169C196.816 232.051 196.816 232.051 195.516 232.648C195.482 233.378 195.475 234.11 195.479 234.84C195.48 235.439 195.48 235.439 195.481 236.05C195.485 236.561 195.488 237.072 195.492 237.598C195.504 240.024 195.504 240.024 195.516 242.5C200.142 242.625 204.769 242.75 209.535 242.879C209.156 245.531 209.156 245.531 208.777 245.91C207.867 245.946 206.967 245.958 206.056 245.953C205.629 245.953 205.629 245.953 205.194 245.953C204.248 245.953 203.303 245.95 202.358 245.947C201.705 245.946 201.051 245.946 200.397 245.946C198.674 245.944 196.95 245.94 195.227 245.936C193.469 245.932 191.712 245.931 189.954 245.929C186.503 245.925 183.052 245.918 179.602 245.91C179.565 243.579 179.565 243.579 179.602 242.879C180.316 242.164 181.55 242.408 182.504 242.38C182.756 242.372 183.008 242.364 183.267 242.356C184.074 242.331 184.881 242.309 185.688 242.287C186.234 242.271 186.78 242.254 187.325 242.237C188.666 242.196 190.007 242.159 191.348 242.121C191.348 238.995 191.348 235.869 191.348 232.648C190.35 232.149 189.589 232.208 188.471 232.192C188.019 232.184 187.566 232.177 187.1 232.169C186.594 232.162 186.087 232.156 185.581 232.15C185.047 232.142 184.512 232.134 183.977 232.126C182.511 232.104 181.044 232.086 179.577 232.068C178.656 232.056 177.736 232.044 176.815 232.032C160.694 231.82 144.571 231.853 128.449 231.891C128.789 233.501 129.594 234.691 130.51 236.035C130.679 236.286 130.849 236.537 131.024 236.796C136.622 244.997 143.163 252.519 151.184 258.414C151.585 258.71 151.987 259.006 152.4 259.311C162.611 266.597 175.177 271.643 187.852 271.766C188.167 271.77 188.483 271.774 188.808 271.777C195.847 271.843 202.649 271.797 209.535 270.16C209.878 270.079 210.221 269.998 210.574 269.914C231.419 264.792 248.181 251.178 259.338 233.075C265.392 222.952 269.268 212.139 271.415 200.584C271.476 200.261 271.536 199.939 271.598 199.606C273.51 188.715 272.434 176.393 272.434 165.961C246.926 165.961 221.418 165.961 195.137 165.961Z" fill="#040607"/>
<path d="M151.562 264.477C152.845 264.797 153.526 265.062 154.614 265.724C154.907 265.9 155.2 266.075 155.501 266.255C155.811 266.442 156.121 266.629 156.441 266.821C159.419 268.572 162.333 270.1 165.582 271.297C165.833 271.39 166.085 271.483 166.343 271.579C176.056 275.101 186.047 275.84 196.273 276.223C195.773 276.348 195.273 276.473 194.758 276.602C194.744 276.931 194.744 276.931 194.729 277.267C194.685 278.269 194.638 279.271 194.592 280.272C194.577 280.618 194.562 280.963 194.547 281.319C194.531 281.655 194.515 281.991 194.499 282.337C194.485 282.645 194.471 282.952 194.457 283.269C194.375 284.226 194.205 285.137 194 286.074C191.381 286.157 189.035 285.837 186.469 285.34C182.641 284.643 178.922 284.418 175.037 284.345C172.238 284.272 169.602 283.961 166.861 283.398C161.811 282.37 157.28 282.124 152.32 283.801C152.195 285.426 152.07 287.052 151.941 288.727C151.816 288.727 151.691 288.727 151.562 288.727C151.562 280.724 151.562 272.722 151.562 264.477Z" fill="#80ACA5"/>
</g>
<defs>
<clipPath id="clip0_377_21071">
<rect width="388" height="388" fill="white"/>
</clipPath>
</defs>
</svg>
