<svg width="72" height="20" viewBox="0 0 72 20" fill="none" xmlns="http://www.w3.org/2000/svg">
<g clip-path="url(#clip0_341_4637)">
<path d="M31.5831 1.8153C31.8168 1.15417 32.2544 0.958008 32.8958 0.958008C33.5372 0.958008 33.9748 1.15417 34.2075 1.8153L38.9898 15.9004H39.0485L41.7604 1.96268C41.9066 1.25173 42.373 0.958008 43.1596 0.958008C43.8896 0.958008 44.3271 1.39911 44.3271 1.93777C44.321 2.30966 44.272 2.67956 44.1809 3.04L41.0315 17.2725C40.8565 18.0322 40.4776 18.6933 39.1947 18.6933C38.2033 18.6933 37.5907 18.4733 37.1819 17.2725L32.9246 4.48577H32.867L28.6097 17.2725C28.1979 18.4733 27.5884 18.6933 26.5969 18.6933C25.314 18.6933 24.9352 18.0322 24.7601 17.2725L21.6107 3.04C21.5196 2.67956 21.4706 2.30966 21.4645 1.93777C21.4645 1.39911 21.902 0.958008 22.631 0.958008C23.4186 0.958008 23.885 1.25173 24.0312 1.96268L26.7431 15.9004H26.8007L31.5831 1.8153Z" fill="black"/>
<path d="M49.3165 17.5403C49.3165 18.2502 48.8202 18.6913 48.0336 18.6913C47.247 18.6913 46.7426 18.2522 46.7426 17.5403V2.10902C46.7426 1.39911 47.2388 0.958008 48.0264 0.958008C48.8141 0.958008 49.3165 1.39911 49.3165 2.10902V17.5403Z" fill="black"/>
<path d="M55.2623 17.5403C55.2623 18.2502 54.766 18.6913 53.9784 18.6913C53.1908 18.6913 52.6956 18.2502 52.6956 17.5403V2.10902C52.6956 1.39911 53.1918 0.958008 53.9784 0.958008C54.765 0.958008 55.2623 1.39911 55.2623 2.10902V8.47851L64.1557 1.64405C64.6221 1.27664 65.0309 0.958008 65.5559 0.958008C66.1974 0.958008 66.6638 1.32542 66.6638 1.8921C66.6638 2.45879 66.43 2.65079 66.1387 2.87186L57.6241 9.314L66.9222 16.8563C67.334 17.1749 67.4473 17.4199 67.4473 17.7375C67.4473 18.2564 66.8923 18.6933 66.1932 18.6933C65.8144 18.6933 65.4633 18.6446 64.9392 18.2284L55.2612 10.2419L55.2623 17.5403Z" fill="black"/>
<path d="M71.9999 17.5403C71.9999 18.2502 71.5037 18.6913 70.7161 18.6913C69.9284 18.6913 69.4332 18.2502 69.4332 17.5403V2.10902C69.4332 1.39911 69.9295 0.958008 70.7161 0.958008C71.5027 0.958008 71.9999 1.39911 71.9999 2.10902V17.5403Z" fill="black"/>
<path d="M3.71675 10.7005C3.90089 10.7002 4.07739 10.6263 4.2075 10.4949C4.33761 10.3635 4.41069 10.1855 4.41068 9.99989C4.41069 9.81426 4.33761 9.63623 4.2075 9.50488C4.07739 9.37352 3.90089 9.29959 3.71675 9.29932H0.694961C0.510646 9.29932 0.33388 9.37313 0.203549 9.50451C0.0732189 9.63589 0 9.81408 0 9.99989C0 10.1857 0.0732189 10.3639 0.203549 10.4953C0.33388 10.6266 0.510646 10.7005 0.694961 10.7005H3.71675Z" fill="black"/>
<path d="M9.22498 16.2543C9.22498 16.0685 9.29819 15.8903 9.42852 15.7589C9.55886 15.6275 9.73562 15.5537 9.91994 15.5537C10.1043 15.5537 10.281 15.6275 10.4113 15.7589C10.5417 15.8903 10.6149 16.0685 10.6149 16.2543V19.3046C10.6149 19.4904 10.5417 19.6686 10.4113 19.8C10.281 19.9314 10.1043 20.0052 9.91994 20.0052C9.73562 20.0052 9.55886 19.9314 9.42852 19.8C9.29819 19.6686 9.22498 19.4904 9.22498 19.3046V16.2543Z" fill="black"/>
<path d="M9.22498 0.699533C9.22525 0.51391 9.29859 0.335984 9.42889 0.204825C9.55919 0.0736672 9.7358 -2.03701e-07 9.91994 0C10.1041 -2.03701e-07 10.2807 0.0736672 10.411 0.204825C10.5413 0.335984 10.6146 0.51391 10.6149 0.699533V3.74572C10.6149 3.93152 10.5417 4.10971 10.4113 4.2411C10.281 4.37248 10.1043 4.44629 9.91994 4.44629C9.73562 4.44629 9.55886 4.37248 9.42852 4.2411C9.29819 4.10971 9.22498 3.93152 9.22498 3.74572V0.699533Z" fill="black"/>
<path d="M11.5683 9.96383L17.408 3.12315C17.5142 2.99871 17.5951 2.8544 17.646 2.69846C17.6969 2.54253 17.7168 2.37801 17.7046 2.21432C17.6924 2.05062 17.6483 1.89095 17.5749 1.74442C17.5015 1.59789 17.4002 1.46737 17.2768 1.3603C17.1533 1.25324 17.0102 1.17174 16.8555 1.12045C16.7008 1.06916 16.5376 1.04908 16.3752 1.06137C16.2128 1.07366 16.0544 1.11807 15.9091 1.19207C15.7637 1.26606 15.6342 1.3682 15.528 1.49263L9.93232 8.04375L4.3366 1.48848C4.12211 1.23717 3.81737 1.08204 3.48942 1.05722C3.16147 1.0324 2.83718 1.13993 2.58787 1.35615C2.33857 1.57237 2.18468 1.87957 2.16006 2.21017C2.13545 2.54077 2.24211 2.86768 2.4566 3.119L8.29633 9.96383L2.4566 16.8004C2.35033 16.9248 2.26941 17.0691 2.21847 17.2251C2.16753 17.3811 2.14756 17.5456 2.1597 17.7093C2.17184 17.8731 2.21586 18.0328 2.28924 18.1794C2.36261 18.326 2.46392 18.4566 2.58736 18.5637C2.83666 18.7801 3.16101 18.8877 3.48906 18.863C3.81711 18.8383 4.12198 18.6832 4.3366 18.4319L9.93232 11.8767L15.528 18.4319C15.7427 18.6832 16.0475 18.8383 16.3756 18.863C16.7036 18.8877 17.028 18.7801 17.2773 18.5637C17.5266 18.3474 17.6804 18.04 17.7049 17.7093C17.7295 17.3787 17.6227 17.0517 17.408 16.8004L11.5683 9.96383Z" fill="black"/>
<path d="M19.0645 10.7161C19.2487 10.7158 19.4252 10.6419 19.5553 10.5105C19.6854 10.3792 19.7585 10.2011 19.7585 10.0155C19.7585 9.82989 19.6854 9.65185 19.5553 9.5205C19.4252 9.38915 19.2487 9.31522 19.0645 9.31494H16.0427C15.8584 9.31494 15.6817 9.38875 15.5513 9.52013C15.421 9.65152 15.3478 9.82971 15.3478 10.0155C15.3478 10.2013 15.421 10.3795 15.5513 10.5109C15.6817 10.6423 15.8584 10.7161 16.0427 10.7161H19.0645Z" fill="black"/>
</g>
<defs>
<clipPath id="clip0_341_4637">
<rect width="72" height="20" fill="white"/>
</clipPath>
</defs>
</svg>
